<!-- icon666.com - MILLIONS vector ICONS FREE --><svg id="Layer_1" enable-background="new 0 0 512 512" viewBox="0 0 512 512" xmlns="http://www.w3.org/2000/svg"><g clip-rule="evenodd" fill-rule="evenodd"><g><path d="m470.697 302.373-91.883-54.347-21.463-133.777-73.151 11.041v353.922c0 8.64 7.048 15.688 15.689 15.688h170.523c8.641 0 15.689-7.048 15.689-15.688v-149.832c-.001-11.406-5.588-21.2-15.404-27.007z" fill="#8ac9fe"></path><path d="m357.824 117.197-.473-2.947-73.151 11.041v353.922c0 8.64 7.048 15.688 15.689 15.688h20.001c-8.641 0-15.689-7.048-15.689-15.688v-353.923z" fill="#60b7ff"></path><path d="m398.044 67.553 27.399 47.456c11.877 20.572 32.003 33.578 53.851 37.27-33.279 9.899-70.455-3.882-88.53-35.188l-19.269-33.375z" fill="#9facba"></path><path d="m398.044 67.553 27.399 47.456c11.877 20.572 32.003 33.578 53.851 37.27-4.552 1.354-9.177 2.262-13.816 2.746-21.844-3.694-41.964-16.7-53.839-37.268l-24.982-43.271z" fill="#8d9ca8"></path><path d="m289.199 102.403 146.363-84.503c2.862-1.652 6.543-.666 8.196 2.196l15.509 26.862c1.559 2.701.804 6.119-1.749 7.911l-173.319 121.656v-65.462c0-3.672 1.82-6.824 5-8.66z" fill="#8d9ca8"></path><path d="m289.199 102.403 146.363-84.503c2.862-1.652 6.543-.666 8.196 2.196l4.157 7.2-138.715 80.087c-3.18 1.836-5 4.988-5 8.66v46.443l-20.001 14.039v-65.462c0-3.672 1.82-6.824 5-8.66z" fill="#8192a5"></path></g><g><path d="m42.621 49.366 8.332-14.43c1.436-2.488 4.647-3.348 7.134-1.912l37.828 21.839-13.554 23.478-37.828-21.84c-2.487-1.436-3.348-4.647-1.912-7.135z" fill="#d8ecfe"></path><path d="m47.819 40.365 3.134-5.429c1.436-2.488 4.647-3.348 7.134-1.912l37.828 21.839-13.554 23.478 10.415-18.041-37.828-21.839c-2.485-1.434-5.691-.578-7.129 1.904z" fill="#c4e2ff"></path><path d="m34.843 281.418 95.813-97.991c10.598-10.839 10.837-28.053.544-39.182l-53.496-57.839 22.868-39.609 113.013 65.248c9.04 5.22 14.216 14.183 14.216 24.622v342.544c0 8.641-7.048 15.688-15.689 15.688h-170.523c-8.641 0-15.689-7.048-15.689-15.688v-175.856c0-8.518 2.988-15.847 8.943-21.937z" fill="#d8ecfe"></path><path d="m34.843 281.418 95.813-97.991c10.598-10.839 10.837-28.053.544-39.182l-53.496-57.839 22.868-39.609 15.001 8.661-17.868 30.948 53.496 57.839c10.293 11.129 10.054 28.343-.544 39.182l-95.813 97.991c-5.955 6.09-8.942 13.419-8.942 21.936v175.858c0 8.641 7.047 15.688 15.689 15.688h-20.002c-8.641 0-15.689-7.048-15.689-15.688v-175.857c0-8.518 2.988-15.847 8.943-21.937z" fill="#c4e2ff"></path><path d="m77.732 102.319c-2.209 3.814-7.092 5.115-10.906 2.906s-5.115-7.092-2.906-10.906l36.624-63.435c2.209-3.814 7.092-5.115 10.906-2.906s5.115 7.092 2.906 10.906z" fill="#9facba"></path></g><g><path d="m158.315 353.679 35.32-57.331c7.507-12.186 20.278-19.372 34.602-19.372h119.45c3.305 0 6 2.695 6 6v17.995c0 3.305-2.695 6-6 6h-119.45c-4.037 0-7.052 1.628-9.177 5.077l-35.32 57.331z" fill="#8d9ca8"></path><path d="m158.315 353.679 1.707-2.771 13.718 8.471 35.32-57.331c2.125-3.449 5.14-5.077 9.177-5.077h119.45c3.305 0 6-2.695 6-6v-13.995h4.001c3.305 0 6 2.695 6 6v17.995c0 3.305-2.695 6-6 6h-119.45c-4.037 0-7.052 1.628-9.177 5.077l-35.32 57.331z" fill="#8192a5"></path><path d="m400.265 483.066-21.778-116.697h-244.974l-21.778 116.697c-1.607 8.612 6.449 11.834 9.83 11.834h268.87c3.381 0 11.438-3.221 9.83-11.834z" fill="#e3a76f"></path><path d="m400.265 483.066-21.778-116.697h-20.001l21.778 116.697c1.608 8.613-6.449 11.834-9.83 11.834h20.001c3.381 0 11.438-3.221 9.83-11.834z" fill="#c48958"></path><path d="m160.08 494.9h16.071l5.775-51.573c.483-4.384-2.679-8.33-7.063-8.813s-8.33 2.679-8.813 7.063zm58.646 0h15.958l1.947-52.167c.155-4.401-3.287-8.095-7.688-8.25s-8.095 3.287-8.25 7.688zm58.589 0h15.958l-1.968-52.729c-.155-4.401-3.849-7.843-8.25-7.688s-7.843 3.849-7.688 8.25zm58.534 0h16.071l-5.97-53.323c-.483-4.384-4.429-7.546-8.813-7.062-4.384.483-7.546 4.429-7.062 8.813z" fill="#c48958"></path><path d="m130.936 345.618h250.129c11.828 0 21.505 9.677 21.505 21.505 0 11.828-9.677 21.505-21.505 21.505h-250.129c-11.828 0-21.506-9.677-21.506-21.505 0-11.828 9.678-21.505 21.506-21.505z" fill="#ffe177"></path><path d="m390.416 347.772c7.177 3.495 12.154 10.87 12.154 19.352 0 11.828-9.677 21.505-21.505 21.505h-250.129c-8.482 0-15.858-4.977-19.352-12.154 2.831 1.379 6.005 2.154 9.352 2.154h250.129c11.828 0 21.505-9.677 21.505-21.505-.001-3.347-.776-6.521-2.154-9.352z" fill="#ffd064"></path></g></g></svg>