<!-- icon666.com - MILLIONS vector ICONS FREE --><svg id="Capa_1" enable-background="new 0 0 512 512" viewBox="0 0 512 512" xmlns="http://www.w3.org/2000/svg"><g><path d="m478.32 129v1.68c0 98-79.44 177.44-177.44 177.44h-89.77c-98.65 0-178.36-80.47-177.43-179.12.36-.64.73-1.27 1.1-1.9l17.33-9.28.19-16.88c5.34-7 11.03-13.72 17.05-20.13l6.36 2.29-3.09-5.71c46.49-47.74 111.47-77.39 183.38-77.39 95.16 0 178.2 51.93 222.32 129z" fill="#26a6fe"></path><path d="m512 256c0 65.23-24.41 124.77-64.58 169.98l-191.42 70.94-191.42-70.94c-40.17-45.21-64.58-104.75-64.58-169.98 0-46.22 12.25-89.57 33.68-127 44.12 77.07 127.16 129 222.32 129s178.2-51.93 222.32-129c21.43 37.43 33.68 80.78 33.68 127z" fill="#0593fc"></path><g><path d="m464.277 221.722 1.688 106.858-95.835-7.85v-13.08h77.29v-62.8h-77.29v-13.08z" fill="#ffbc00"></path><path d="m473.59 218.68v114.9h-103.46v-12.85h90.37v-88.96h-90.37v-13.09z" fill="#ffd008"></path></g><g><g><g><path d="m256.36 238.309 16.768 25.967-16.768 29.016-55.047-6.577c-11.559 0-20.932-9.373-20.932-20.932s9.373-20.933 20.932-20.933z" fill="#ffd008"></path><path d="m323.033 258.805-9.574 5.724 9.574 8.231v13.955l-66.673 6.577v-54.983l66.673 6.541z" fill="#ffbc00"></path></g><path d="m256.36 258.805 5.975 6.978-5.975 6.977h-53.494c-3.855 0-6.978-3.122-6.978-6.977 0-1.928.779-3.672 2.041-4.934 1.265-1.265 3.009-2.044 4.937-2.044z" fill="#ffbc00"></path><path d="m256.36 258.805h66.673v13.955h-66.673z" fill="#ff9c0d"></path></g><g><g><path d="m256.36 286.715 16.768 20.932-16.768 28.196-55.047-7.264c-11.559 0-20.932-9.373-20.932-20.932s9.373-20.932 20.932-20.932z" fill="#9fea6e"></path><path d="m323.033 300.67-9.789 6.128 9.789 7.827v13.955l-66.673 7.264v-49.129h66.673z" fill="#7cd647"></path></g><path d="m256.36 300.67 6.989 6.978-6.989 6.978h-53.494c-3.855 0-6.978-3.122-6.978-6.978 0-1.928.779-3.672 2.041-4.934 1.265-1.265 3.009-2.044 4.937-2.044z" fill="#7cd647"></path><path d="m256.36 300.67h66.673v13.955h-66.673z" fill="#57c127"></path></g><g><path d="m256.36 328.58 11.043 20.932-11.043 29.712-55.047-8.779c-11.559 0-20.932-9.373-20.932-20.932s9.373-20.932 20.932-20.932h55.047z" fill="#fe403d"></path><path d="m323.033 342.535-8.684 6.977 8.684 6.978v13.955l-66.673 8.779v-50.644h66.673z" fill="#e52e2b"></path><path d="m256.36 342.535 6.989 6.978-6.989 6.978h-53.494c-3.855 0-6.978-3.122-6.978-6.978 0-1.927.779-3.672 2.041-4.934 1.265-1.265 3.009-2.044 4.937-2.044z" fill="#e52e2b"></path><path d="m256.36 342.535h66.673v13.955h-66.673z" fill="#cc2121"></path></g><g><g><path d="m256.36 218.684 12.749 13.083-70.879 6.542-60.973-6.542v-13.083z" fill="#dbecfc"></path><path d="m269.109 231.767-12.749 13.083h-119.103v-13.083z" fill="#cbe3fe"></path></g><path d="m370.131 218.684v13.083l-56.885 6.542-56.886-6.542v-13.083z" fill="#cbe3fe"></path><path d="m256.36 231.767h113.771v13.083h-113.771z" fill="#b7d7f7"></path></g><path d="m143.25 153.26-18.95 91.59c-30.34 0-54.95-24.6-54.95-54.95v-109.09c1.07-1.15 2.16-2.29 3.27-3.42h51.68v23.55z" fill="#564f56"></path><g><path d="m267.4 383.53-135.14 8.51-1.53-269.19-89.23-6.62c3.41-5.23 7.01-10.34 10.8-15.29h98.04v269.5h106.02z" fill="#cbe3fe"></path><path d="m267.4 383.53-11.04 13.08h-132.19v-269.51h-89.39c2.15-3.69 4.39-7.31 6.72-10.87.48-.74.97-1.48 1.47-2.21h94.29v269.51z" fill="#dbecfc"></path></g><g><g><path d="m220.948 129.926h17.115v18.67h-17.115z" fill="#f0f7fc"></path><path d="m229.505 129.926h8.557v18.67h-8.557z" fill="#cbe3fe"></path><path d="m225.226 129.926h4.279v18.67h-4.279z" fill="#dbecfc"></path><path d="m212.308 193.716 13.197-5.226-.083 33.232h-4.085c-3.974 0-7.572-1.611-10.177-4.215-2.604-2.605-4.215-6.203-4.215-10.177 0-1.893.308-3.762.899-5.535.591-1.772 1.466-3.452 2.602-4.967.731-.975 1.353-2.019 1.862-3.112z" fill="#fff"></path><path d="m225.615 143.929-.083 33.567-13.546-5.561c-.714-1.817-1.618-3.566-2.688-5.224-.745-1.151-1.333-2.415-1.734-3.758-.403-1.343-.619-2.768-.619-4.242 0-8.163 6.618-14.781 14.781-14.781h3.889z" fill="#fff"></path><path d="m229.505 143.929 7.39 38.141-7.39 39.652h-4.083c-1.988 0-3.788-1.611-5.089-4.215-1.302-2.605-2.107-6.203-2.107-10.177 0-1.893.154-3.762.449-5.535.296-1.772.733-3.452 1.302-4.967 1.136-3.031 1.749-6.714 1.749-10.502v-4.237c0-5.473-.84-10.78-2.325-15.379-.372-1.151-.666-2.415-.866-3.758-.201-1.343-.309-2.768-.309-4.242 0-8.163 3.309-14.781 7.39-14.781z" fill="#f0f7fc"></path><path d="m247.024 171.934-17.519 7.191v-35.197h7.779c8.163 0 14.781 6.618 14.781 14.781 0 2.949-.864 5.696-2.353 8.001-1.07 1.658-1.974 3.407-2.688 5.224z" fill="#dbecfc"></path><path d="m251.166 201.795c.591 1.774.899 3.643.899 5.535 0 7.949-6.443 14.392-14.392 14.392h-8.168v-34.817l17.196 6.811c.508 1.093 1.132 2.137 1.863 3.112 1.136 1.514 2.011 3.195 2.602 4.967z" fill="#dbecfc"></path><path d="m215.954 165.192c-.804-1.245-1.229-2.693-1.229-4.185 0-2.844 1.54-5.335 3.831-6.68.038-.022.078-.045.118-.066-.059.043 4.83 15.576 7.3 23.414l-5.7-2.339c-.82-3.544-2.274-6.973-4.32-10.144z" fill="#bbf794"></path><path d="m226.782 187.984-8.257 23.469c-2.266-1.262-3.801-3.684-3.801-6.457 0-2.194.724-4.369 2.042-6.123 1.87-2.496 3.174-5.394 3.82-8.436z" fill="#bbf794"></path><path d="m229.505 186.905 3.485 1.38-3.485 24.102h-7.39c-1.302 0-2.526-.339-3.589-.934-.195-1.305-.301-2.69-.301-4.123 0-1.893.154-3.762.449-5.535.296-1.772.733-3.452 1.302-4.967.756-2.018 1.281-4.325 1.546-6.761z" fill="#9fea6e"></path><path d="m218.535 162.952c-.201-1.343-.309-2.768-.309-4.242 0-1.462.107-2.875.304-4.21.016-.109.081-.206.178-.261 1.113-.621 2.396-.975 3.76-.975h7.038l3.699 24.344-3.699 1.518-8.153-3.347c-.382-3.203-1.048-6.268-1.952-9.069-.372-1.151-.666-2.415-.866-3.758z" fill="#9fea6e"></path><path d="m242.244 198.873c1.317 1.755 2.042 3.929 2.042 6.123 0 4.075-3.316 7.39-7.39 7.39h-7.39v-25.482l8.919 3.532c.645 3.043 1.949 5.941 3.819 8.437z" fill="#7cd647"></path><path d="m238.736 175.336-9.231 3.789v-25.862h7.038c4.27 0 7.743 3.473 7.743 7.743 0 1.492-.425 2.941-1.229 4.185-2.047 3.172-3.501 6.601-4.321 10.145z" fill="#7cd647"></path><path d="m227.366 184.385-6.458 9.332h-8.6c1.074-2.301 1.639-4.821 1.639-7.39v-4.237c0-3.501-.686-6.932-1.96-10.155h8.76z" fill="#9fea6e"></path><path d="m229.505 171.934 8.447 10.155-8.447 11.627h-8.597c.536-2.301.818-4.821.818-7.39v-4.237c0-3.501-.344-6.932-.98-10.155z" fill="#7cd647"></path><path d="m245.963 191.861c.211.631.456 1.252.738 1.855h-17.196v-21.782h17.519c-1.274 3.222-1.96 6.654-1.96 10.155v4.237c0 1.893.307 3.762.899 5.535z" fill="#57c127"></path></g><path d="m223.726 123.702 3.056 6.791-3.056 5.656h-5.779v-12.447z" fill="#9fea6e"></path><path d="m229.505 123.702 2.546 6.224-2.546 6.223h-5.779v-12.447z" fill="#7cd647"></path><path d="m229.505 123.702h11.558v12.447h-11.558z" fill="#57c127"></path></g><g><g><path d="m276.254 116.343h19.647v21.433h-19.647z" fill="#f0f7fc"></path><path d="m286.077 116.343h9.823v21.433h-9.823z" fill="#cbe3fe"></path><path d="m281.165 116.343h4.912v21.433h-4.912z" fill="#dbecfc"></path><path d="m266.335 189.572 15.15-5.999-.095 38.149h-4.69c-4.562 0-8.692-1.85-11.683-4.838-2.989-2.991-4.838-7.12-4.838-11.683 0-2.173.353-4.318 1.032-6.355.679-2.034 1.683-3.963 2.987-5.701.839-1.12 1.553-2.318 2.137-3.573z" fill="#fff"></path><path d="m281.612 132.418-.095 38.534-15.551-6.384c-.82-2.086-1.857-4.094-3.086-5.997-.855-1.322-1.53-2.772-1.99-4.314-.462-1.542-.711-3.177-.711-4.87 0-9.371 7.597-16.968 16.968-16.968h4.465z" fill="#fff"></path><path d="m286.077 132.418 8.484 43.785-8.484 45.519h-4.688c-2.282 0-4.348-1.85-5.842-4.838-1.494-2.991-2.419-7.12-2.419-11.683 0-2.173.177-4.318.516-6.355.339-2.034.841-3.963 1.494-5.701 1.304-3.479 2.008-7.708 2.008-12.056v-4.864c0-6.283-.965-12.376-2.669-17.654-.427-1.322-.764-2.772-.994-4.314s-.355-3.177-.355-4.87c0-9.371 3.798-16.968 8.484-16.968h4.465z" fill="#f0f7fc"></path><path d="m306.188 164.567-20.111 8.256v-40.405h8.93c9.371 0 16.968 7.597 16.968 16.968 0 3.386-.992 6.539-2.701 9.184-1.228 1.903-2.266 3.911-3.086 5.997z" fill="#dbecfc"></path><path d="m310.943 198.846c.679 2.036 1.032 4.182 1.032 6.355 0 9.125-7.396 16.521-16.521 16.521h-9.377v-39.969l19.74 7.819c.583 1.254 1.3 2.453 2.139 3.572 1.304 1.739 2.309 3.668 2.987 5.702z" fill="#dbecfc"></path><path d="m270.52 156.827c-.923-1.429-1.411-3.092-1.411-4.805 0-3.264 1.768-6.124 4.398-7.668.044-.026.089-.052.135-.075-.068.05 5.545 17.881 8.381 26.879l-6.543-2.685c-.941-4.069-2.61-8.006-4.96-11.646z" fill="#bbf794"></path><path d="m282.952 182.992-9.478 26.942c-2.602-1.449-4.364-4.229-4.364-7.412 0-2.518.831-5.015 2.344-7.029 2.147-2.866 3.644-6.192 4.386-9.685z" fill="#bbf794"></path><path d="m286.077 181.753 4.001 1.584-4.001 27.668h-8.484c-1.494 0-2.899-.389-4.12-1.072-.224-1.498-.345-3.088-.345-4.733 0-2.173.177-4.318.516-6.355.339-2.034.841-3.963 1.494-5.701.867-2.316 1.471-4.965 1.774-7.762z" fill="#9fea6e"></path><path d="m273.483 154.255c-.23-1.542-.355-3.177-.355-4.87 0-1.679.123-3.3.349-4.832.018-.125.093-.236.204-.3 1.278-.712 2.75-1.119 4.316-1.119h8.079l4.247 27.946-4.247 1.742-9.359-3.842c-.439-3.677-1.203-7.196-2.24-10.411-.426-1.321-.764-2.771-.994-4.314z" fill="#9fea6e"></path><path d="m300.701 195.492c1.512 2.014 2.344 4.511 2.344 7.029 0 4.678-3.806 8.484-8.484 8.484h-8.484v-29.252l10.238 4.054c.742 3.493 2.239 6.819 4.386 9.685z" fill="#7cd647"></path><path d="m296.674 168.473-10.597 4.35v-29.689h8.079c4.902 0 8.889 3.987 8.889 8.889 0 1.713-.488 3.376-1.411 4.805-2.35 3.639-4.019 7.576-4.96 11.645z" fill="#7cd647"></path><path d="m283.621 178.86-7.413 10.712h-9.873c1.232-2.641 1.881-5.535 1.881-8.484v-4.864c0-4.019-.788-7.958-2.251-11.657h10.056z" fill="#9fea6e"></path><path d="m286.077 164.567 9.696 11.657-9.696 13.348h-9.869c.615-2.641.939-5.535.939-8.484v-4.864c0-4.019-.395-7.958-1.125-11.657z" fill="#7cd647"></path><path d="m304.97 187.443c.242.724.524 1.437.847 2.129h-19.74v-25.005h20.111c-1.463 3.699-2.25 7.638-2.25 11.657v4.864c0 2.174.353 4.319 1.032 6.355z" fill="#57c127"></path></g><path d="m279.443 109.199 3.509 7.795-3.509 6.493h-6.634v-14.288z" fill="#9fea6e"></path><path d="m286.077 109.199 2.923 7.144-2.923 7.144h-6.634v-14.288z" fill="#7cd647"></path><path d="m286.077 109.199h13.269v14.289h-13.269z" fill="#57c127"></path></g><path d="m370.131 145.421 6.429 244.535-120.2-6.428v-13.083h100.688v-225.024z" fill="#b7d7f7"></path><path d="m383.214 145.421v251.189h-126.854v-13.082h113.771v-238.107z" fill="#cbe3fe"></path><ellipse cx="137.257" cy="387.746" fill="#564f56" rx="38.234" ry="38.234" transform="matrix(.924 -.383 .383 .924 -137.936 82.042)"></ellipse><ellipse cx="137.257" cy="387.746" fill="#fff" rx="16.034" ry="16.034" transform="matrix(.16 -.987 .987 .16 -267.468 461.121)"></ellipse><ellipse cx="370.131" cy="387.746" fill="#4c414c" rx="38.234" ry="38.234" transform="matrix(.924 -.383 .383 .924 -120.21 171.159)"></ellipse><ellipse cx="370.131" cy="387.746" fill="#fff" rx="16.034" ry="16.034" transform="matrix(.16 -.987 .987 .16 -71.897 690.988)"></ellipse></g><g><path d="m256.36 425.98 50.345 46.557-50.345 39.463h-.36c-76.15 0-144.53-33.25-191.42-86.02z" fill="#564f56"></path><path d="m447.42 425.98c-46.82 52.69-115.05 85.91-191.06 86.02v-86.02z" fill="#4c414c"></path></g></g></svg>