<!-- icon666.com - MILLIONS vector ICONS FREE --><svg clip-rule="evenodd" fill-rule="evenodd" image-rendering="optimizeQuality" shape-rendering="geometricPrecision" text-rendering="geometricPrecision" viewBox="0 0 6.82666 6.82666" xmlns="http://www.w3.org/2000/svg" xmlns:xlink="http://www.w3.org/1999/xlink"><linearGradient id="id0" gradientUnits="userSpaceOnUse" x1=".08" x2="6.747" y1=".08" y2="6.747"><stop offset="0" stop-color="#f84d9a"></stop><stop offset="1" stop-color="#a10556"></stop></linearGradient><g id="Layer_x0020_1"><circle cx="3.413" cy="3.413" fill="url(#id0)" r="3.333"></circle><g id="_264565800" fill="#fff"><path id="_264568152" d="m1.49183 4.31305c-.0287047 0-.0519921-.023189-.0519921-.0519685l.00002362-.18189c0-.028689.023252-.0519685.0519449-.0519685.0287283 0 .0519685.0232795.0519685.0519685l.00002362.18189c0 .0287795-.0232992.0519685-.0519685.0519685z"></path><path id="_264567456" d="m2.8044 4.31314h-1.55301c-.0592756 0-.107484-.0481811-.107484-.107366l.00001575-.214642c0-.14535.0914724-.276984.227705-.327598.00067323-.0001811.00126378-.00045276.0018937-.00062992l.386917-.126854v-.128118c0-.0287835.0232402-.0519685.0519291-.0519685.0287047 0 .0519724.023185.0519724.0519685l.00003543.165831c0 .0224646-.0144764.042311-.0358622.0493504l-.421583.13822c-.0952087.0357283-.159087.128028-.159087.229799l.00001575.214642c0 .0018937.00160236.00342913.0035.00342913h1.55304c.00186614 0 .00348819-.00153543.00348819-.00342913v-.214551c0-.101772-.063874-.194067-.159146-.229795l-.42152-.138315c-.0213543-.00703937-.0358268-.0269764-.0358268-.0493504l.00001575-.166012c0-.0286929.0232598-.0519685.0519528-.0519685.0288031 0 .0519685.0232756.0519685.0519685l.00001575.128299.386799.126941c.00061024.0001811.00123228.00045276.0018622.00062992.136264.0506181.227815.182252.227815.327602v.214551c0 .059185-.0481772.107366-.107425.107366z"></path><path id="_264567144" d="m2.56404 4.31305c-.0287874 0-.0519961-.023189-.0519961-.0519685l.00002756-.18189c0-.028689.0231575-.0519685.0519409-.0519685.0287283 0 .051878.0232795.051878.0519685l.00003543.18189c0 .0287795-.0232205.0519685-.0518858.0519685z"></path><path id="_264566856" d="m2.35056 3.10794c-.00458661 0-.00930709-.00054331-.014-.0018937-.0275748-.00766929-.0437559-.0363622-.0360906-.0640591.00596063-.0210236.0151614-.0415039.0249961-.0631575.0335827-.0741654.0683858-.15085-.0111024-.280323-.00225197-.0037874-.00405906-.00785039-.00541339-.012-.0023189-.00712598-.069378-.189559-.451835-.0989764-.00387008.00090551-.00793701.00135827-.0119055.00135827h-.141169l.0419409.0455591c.0101102.0109173.0149567.0255315.0135157.0402402-.00141732.0147953-.00902362.0281496-.0210276.0369016-.013437.0102835-.130827.108988.00893701.307571.0165197.0234606.0109173.0558465-.0125433.0723583-.0234331.0165118-.055937.0109173-.0724528-.0125433-.143264-.20363-.0772323-.344469-.0258031-.409791l-.0894055-.0969882c-.0139685-.0151575-.017685-.0371732-.00938976-.0561181.00833465-.0188583.0269803-.031126.0476417-.031126h.253744c.439094-.101776.548969.118642.566563.163752.104602.174043.0503465.293677.0143425.373075-.00848031.0186732-.0157874.0348228-.0194803.0481772-.00637402.0230039-.0273465.0379843-.050063.0379843z"></path><path id="_264567168" d="m1.88492 2.83854c-.0812008.0253504-.105299.0674843-.117303.1015-.00457874.0132598-.00775591.0275197-.0092874.0422244-.0008937.0083937-.00135827.016874-.00135827.0253543l.00001968.159965c0 .0726299.028311.140839.0798307.192087.051063.0507913.118732.0787638.190819.0787638h.00162598.00009055c.148413-.00090551.269224-.122346.269224-.27085l.00001575-.164839c0-.0217441-.00290551-.0420433-.00858661-.0604488-.0107362-.0344685-.0267953-.0555748-.0491693-.0645118-.0410236-.0164173-.0999685.00767323-.117291.0174173-.022189.0123583-.0500748.00694488-.0659567-.0129055-.0532244-.0664921-.160232-.046374-.172673-.0437559zm.142752.703831c-.0997165 0-.193472-.0387087-.264201-.108992-.0712795-.0709134-.110437-.165287-.110437-.265886l.00001968-.159878c0-.012.00061417-.0242677.00187795-.0362677.00246457-.0227362.00730709-.044752.0146142-.0655906.0290591-.0830039.0902244-.137681.18685-.167185.00091732-.00027165.00180315-.00053937.00279921-.00072047.0066811-.00162598.150941-.0357283.250728.0497126.0404409-.015248.106732-.0313976.169441-.00631496.0362047.0144331.0845394.0487205.10989.13028.00885433.0283307.0132638.0590984.0132638.0912165l.00001575.164839c0 .205528-.167201.373614-.372642.374697-.00067717.00009055-.0015315.00009055-.00222047.00009055z"></path><path id="_264566832" d="m2.02775 4.31314c-.0287087 0-.0519961-.0232795-.0519961-.0519685l.00002756-.5325c0-.0287795.023252-.0521457.0519449-.0521457.0287283 0 .0519685.0230945.0519685.051878l.00002362.532768c0 .028689-.0232953.0519685-.0519685.0519685z"></path><path id="_264567264" d="m2.2399669 3.9260852c-.0164449 0-.032874-.00496063-.0468583-.0149764l-.195484-.140295c-.00057087-.00045276-.00111417-.00090158-.00165354-.00126772l-.213894-.153559c-.0233071-.016689-.0287205-.0491693-.011937-.0724449.0167283-.0233701.0491732-.0286929.0725394-.0119134l.215398.154555c.00052756.00035827.00105118.00081102.00167717.00126378l.177575.127484.196949-.202555c.0200591-.0205669.0529567-.0210197.0735236-.00107874.0205906.0200276.0210276.0529606.00099606.0735315l-.210937.216988c-.0155906.0159685-.0367283.0242677-.0578937.0242677z"></path><path id="_264566784" d="m1.80201 3.82666h-.00001968zm.0138858.0994252c-.0212756 0-.0424173-.00829921-.0579331-.0242677l-.211004-.216988c-.0200551-.0205709-.0196102-.0535.00096063-.0735315.0205984-.0199409.0535039-.0194882.0735315.00108268l.196961.202551.179008-.12848c.00057087-.00044882.0010748-.00081102.00161417-.00107874l.214016-.153744c.0233858-.0167795.0558425-.0114567.0725354.0118228.0167835.0233661.0114606.0558465-.0118189.0725394l-.215528.154732c-.00052756.00045276-.00110236.00081102-.00164173.00117323l-.193972.139213c-.0139646.0100157-.0304055.0149764-.0467283.0149764z"></path><path id="_264566904" d="m4.26268 4.31305c-.0287047 0-.0520039-.023189-.0520039-.0519685l.00003543-.18189c0-.028689.0232402-.0519685.0519331-.0519685.0287795 0 .0519685.0232795.0519685.0519685l.00003543.18189c0 .0287795-.0232244.0519685-.0519685.0519685z"></path><path id="_264566736" d="m5.57533 4.31314h-1.55301c-.0592756 0-.107488-.0481811-.107488-.107366l.00001968-.214642c0-.14535.0914567-.276984.227701-.327598.00063386-.0001811.00126378-.00045276.0018937-.00062992l.386795-.126854v-.128118c0-.0287835.0232677-.0519685.0519606-.0519685.0287953 0 .0519685.023185.0519685.0519685l.00000787.165831c0 .0224646-.0144449.042311-.0357323.0493504l-.421591.13822c-.0952047.0357283-.159087.128028-.159087.229799l.00001968.214642c0 .0018937.00160236.00342913.00349606.00342913h1.55304c.0018622 0 .00348425-.00153543.00348425-.00342913l.00000394-.214551c0-.101772-.0639685-.194067-.159157-.229795l-.421591-.138315c-.021315-.00703937-.035748-.0269764-.035748-.0493504l.00001968-.166012c0-.0286929.023252-.0519685.0519488-.0519685.0287244 0 .0519685.0232756.0519685.0519685l.00001968.128299.386803.126941c.00060236.0001811.00122835.00045276.00185039.00062992.136268.0506181.227819.182252.227819.327602l.00000394.214551c0 .059185-.048185.107366-.107425.107366z"></path><path id="_264567384" d="m5.33486 4.31305c-.0286654 0-.0519685-.023189-.0519685-.0519685v-.18189c0-.028689.0232717-.0519685.0519685-.0519685.0287047 0 .0519685.0232795.0519685.0519685v.18189c0 .0287795-.0232756.0519685-.0519685.0519685z"></path><path id="_264566016" d="m5.1215 3.10794c-.00458661 0-.00940157-.00054331-.0140039-.0018937-.0276929-.00775984-.0438504-.0363622-.0360906-.0640591.00588189-.0210236.0151575-.0415039.0248976-.0631575.0336811-.0741654.0683898-.15085-.0110079-.280323-.00232283-.0037874-.00414173-.00785039-.00540945-.012-.00243701-.00712598-.0693819-.189559-.451843-.0989764-.00385433.00090551-.00793307.00135827-.0119921.00135827h-.14111l.0419764.0455591c.00999213.0109173.0149567.0255315.0135118.0402402-.00140945.0147953-.00911417.0281496-.0210197.0369016-.013437.0102835-.130823.108988.00892913.307571.0165276.0234606.0109134.0558465-.0126339.0723583-.0234567.0165118-.0558465.0109173-.0723583-.0125433-.143343-.20363-.0772323-.344469-.0258031-.409791l-.0894055-.0969882c-.0139646-.0151575-.017689-.0371732-.0093937-.0561181.00833858-.0188583.0269764-.031126.0475512-.031126h.253803c.439055-.101776.549004.118642.566508.163752.104575.174043.0503465.293677.0144331.373075-.00847638.0186732-.0157913.0348228-.0195748.0481772-.00640157.0230039-.027248.0379843-.0499646.0379843z"></path><path id="_264566688" d="m4.65593 2.83854c-.0813622.0253504-.105476.0674843-.117382.1015-.00458268.0132598-.00776378.0275197-.00938583.0422244-.00079528.00829921-.00126378.016874-.00126378.0253543l.00002362.159965c-.00008268.0726299.0282126.140839.0797323.192087.0510787.0507913.118827.0787638.190827.0787638h.0017126c.148508-.00090551.269315-.122346.269315-.27085l.00001968-.164839c0-.0217441-.00290551-.0420433-.00859449-.0604488-.0107283-.034378-.0266969-.0554882-.0489882-.0644173-.0405079-.0164252-.0987008.00703543-.11774.0174094-.0220748.0121811-.0499843.00676772-.0657717-.0129921-.0532165-.0664921-.160874-.0461929-.172504-.0437559zm.142551.703831c-.0996772 0-.19335-.0387087-.264087-.108992-.0712717-.0709134-.110524-.165287-.110433-.265886l.00002362-.159878c0-.0120906.00061417-.0243583.00187008-.0362677.00247244-.0227362.00730315-.044752.0146181-.0655906.029063-.0830039.0901378-.137681.186854-.167185.00091732-.00027165.00180315-.00053937.00270866-.00072047.00669291-.00162598.150941-.0357283.250819.0497126.0403583-.015248.106638-.0313976.169339-.00631496.036185.0144331.0846339.0487205.109992.13028.00877165.0283307.0132598.0590984.0132598.0912165l.00001968.164839c0 .205528-.167201.373614-.37265.374697-.00079134.00009055-.00152756.00009055-.00233465.00009055z"></path><path id="_264566664" d="m4.79869 4.31314c-.0287047 0-.0519921-.0232795-.0519921-.0519685l.00002362-.5325c0-.0287795.0232559-.0521457.0519449-.0521457s.0519685.0230945.0519685.051878l.00002362.532768c0 .028689-.0233031.0519685-.0519685.0519685z"></path><path id="_264566280" d="m5.02459 3.82666h.00008268s0 0-.00008268 0zm-.0138071.0994252c-.016315 0-.0327559-.00496063-.0467402-.0149764l-.195476-.140295c-.00065354-.00045276-.00120866-.00090158-.00183858-.00135433l-.213713-.153472c-.0233858-.016689-.0287205-.0491693-.0119409-.0724449.0166929-.0233701.0491732-.0286929.0724528-.0119134l.215449.154555c.0005748.00035827.00117717.00081102.00172047.00126378l.177571.127484.196953-.202555c.0200157-.0205669.0529449-.0210197.0735236-.00107874.0205906.0200276.0210197.0529606.00098819.0735315l-.211008.216988c-.0155118.0159685-.0367441.0242677-.0579409.0242677z"></path><path id="_264566328" d="m4.57294 3.82666h-.00011024zm.0138071.0994252c-.0211929 0-.0423386-.00829921-.0579488-.0242677l-.211028-.216988c-.0199331-.0205709-.0194882-.0535.00107874-.0735315.0206024-.0199409.0535-.0194882.0734409.00108268l.196976.202551.179087-.12848c.00044488-.00035827.00098032-.00072047.00143307-.00107874l.214197-.153744c.0233858-.0167795.055748-.0114567.0725276.0118228.0167087.0233661.0113701.0558465-.0119055.0725394l-.215433.154732c-.00052756.00036221-.00101181.00072047-.00155512.00107874l-.194138.139307c-.0138898.0100157-.0303386.0149764-.0467323.0149764z"></path><path id="_264566640" d="m2.87727 3.4645c-.0287835 0-.0519724-.023189-.0519724-.0519685l.00000394-.181894c0-.028689.023185-.0519685.0519685-.0519685.0287047 0 .0519646.0232795.0519646.0519685l.00000394.181894c0 .0287795-.0232795.0519685-.0519685.0519685z"></path><path id="_264566184" d="m4.18984 3.46459h-1.553c-.0592795 0-.107469-.0481772-.107469-.107362l.00003937-.214642c0-.14535.0914488-.276984.227681-.327602.00065354-.00017717.00126378-.00044882.0018937-.00062992l.386902-.126854v-.128118c0-.0287795.0232559-.0519646.0519449-.0519646.0287283-.00000394.0519646.023189.0519646.0519685l.00002756.165827c0 .0224646-.0144528.0423189-.0358425.0493543l-.421602.13822c-.0951654.0358189-.159071.128028-.159071.229799l.00003937.214642c0 .0018937.00158268.00342913.00347638.00342913h1.55302c.00190945 0 .00350787-.00153543.00350787-.00342913l.00001968-.214551c0-.101772-.0639882-.194071-.159169-.229799l-.421496-.138311c-.0213898-.00703543-.0358465-.0268898-.0358465-.0493543v-.165917c0-.0287835.0232795-.0519685.0519685-.0519685.0287047 0 .0519685.023185.0519685.0519685v.128205l.386799.126945c.00065354.0001811.00125591.00045276.00188189.00062992.136244.0506142.227811.182256.227811.327602l.00001968.214551c0 .059185-.0481929.107362-.107465.107362z"></path><path id="_264566568" d="m3.94941 3.4645c-.0287047 0-.0519764-.023189-.0519764-.0519685l.00000787-.181894c0-.028689.0232638-.0519685.0519488-.0519685.0288071 0 .0519803.0232795.0519803.0519685l.00000787.181894c0 .0287795-.0232008.0519685-.0519685.0519685z"></path><path id="_264566448" d="m3.73601 2.25948c-.00458661 0-.00929134-.00063386-.0139764-.00198425-.0275984-.00767323-.0437638-.0363622-.0360945-.0640591.00589764-.0210236.0151535-.0415039.0249921-.0631575.0335669-.0741654.0682953-.150854-.0110984-.280327-.00231102-.0037874-.00414961-.00784646-.00541339-.0119961-.00242126-.00712992-.069378-.189559-.451839-.0989764-.00384646.00090158-.00793701.00135433-.0119055.00135433h-.141185l.0419409.045563c.0100276.0109173.0149685.0255315.0135236.0402402-.0014252.0147953-.00911417.0281496-.0210157.0369016-.0134173.0102874-.130823.108988.0089252.307571.0165512.0234567.0109252.0558465-.0125315.0723583-.0235354.0165118-.0559488.0109173-.0724528-.0125433-.143327-.203634-.0772323-.344472-.0258031-.409791l-.0893858-.0969921c-.0140079-.0151575-.0177126-.0371693-.00940945-.0561181.00831102-.0188543.0269803-.031126.0476378-.031126h.253728c.439012-.101772.548984.118642.566579.163756.104587.174039.0503425.293673.0143425.373071-.00846063.0186772-.0157835.0348307-.0194882.0481811-.00638189.0230039-.0273346.0380748-.0500709.0380748z"></path><path id="_264566376" d="m3.27041 1.98998c-.0812047.0253543-.105421.0674882-.117327.101504-.00459843.0132598-.00775984.0274291-.00929134.0422244-.00087008.00829921-.00135827.0168701-.00135827.0253504v.159965c0 .0726299.0283307.140843.0797638.192087.0511732.0507992.118819.0787638.190906.0787638.00054331 0 .00108268.00009055.0017126 0 .148437-.00081102.269236-.122339.269236-.270846l.00002756-.164752c0-.0218307-.0029252-.0421299-.0086063-.0604488-.0107165-.0345551-.0268819-.0556654-.0491693-.0645945-.041122-.0164252-.0999685.00766535-.117382.0174094-.0220748.0123622-.0500748.00694882-.0659528-.0129016-.0531142-.0664961-.16015-.046378-.172559-.0437598zm.142626.703831c-.0995906 0-.193366-.0387047-.264106-.108984-.071252-.0709213-.110516-.165291-.110433-.265894v-.159874c0-.0120906.00063386-.0243583.00188976-.0362717.00245669-.0227362.00731496-.0448386.0146181-.0655906.0290866-.0830039.0902244-.137677.186854-.167181.00094095-.00027165.00181102-.00053937.00279528-.00072047.0067126-.00162598.150949-.0357283.250732.0497126.0403425-.015248.106736-.0313976.16935-.00631496.0361969.0144331.084626.0487165.10998.13028.00888189.0283268.0132717.0590079.0132717.0913031l.00002756.164748c0 .205528-.167217.373614-.372657.374791l.0000315-.00000394c-.00072835 0-.00156693.00000394-.00235433 0z"></path><path id="_264566544" d="m3.4132 3.46459c-.0286654 0-.0519803-.023185-.0519803-.0519646l.00001181-.5325c0-.0286929.0232717-.0521457.0519685-.0521457.0287047-.00000394.0519567.023185.0519567.051878l.00001181.532768c0 .0287795-.0232835.0519646-.0519685.0519646z"></path><path id="_264565416" d="m3.62542 3.07754c-.0164055 0-.0328543-.00496063-.0468425-.0149764l-.195504-.140299c-.00052362-.00044882-.001-.00081102-.00154331-.00117323l-.214-.153646c-.0233465-.0166969-.0287008-.0491732-.0119213-.0724488.0167087-.0233701.0491772-.0286929.0725433-.0119094l.215378.154547c.00052756.00036221.00097638.00072441.00151969.00108661l.177772.127661.196953-.202547c.0200157-.0205748.0528386-.0210236.0735039-.00108268.0205669.0200315.0210197.0529606.00098425.0735315l-.210906.216984c-.0156299.0159724-.036748.0242717-.057937.0242717z"></path><path id="_264565584" d="m3.20126 3.07754c-.0211969 0-.042315-.00829921-.0578346-.0242677l-.21102-.216988c-.0200197-.0205748-.0195906-.0535.00098032-.0735315.0205748-.0199409.0535039-.0194882.0735315.00108268l.196984.202547.179004-.128476c.0005315-.00036221.00096457-.00072047.00140945-.00108268l.214217-.153736c.0233465-.0167874.0558268-.0114606.0725236.0119094.0168031.0232717.0114528.0557559-.0119213.0724488l-.215449.154819c-.00044488.00027165-.00098425.00063386-.0015315.00099213l-.194039.139307c-.0140039.0100118-.0304331.0149764-.0468543.0149764z"></path><path id="_264565176" d="m1.39511 4.78483.0966299.113413c.00893307.0104646.0133228.0239961.0122362.0377126l-.0115472.148594.137799-.0569291c.0127087-.00523228.0269528-.00523228.0395866 0l.137795.0569291-.0115709-.148594c-.00097244-.0137165.00333071-.027248.0122677-.0377126l.0966654-.113413-.144823-.0350039c-.0133583-.00316142-.0249252-.0115512-.0321457-.0232795l-.0779213-.126945-.0780748.126945c-.00718898.0117283-.0187638.0201181-.0321142.0232795l-.144783.0350039zm.470843.431988c-.00673622 0-.013437-.00135433-.0198465-.0039685l-.196024-.0809331-.196142.0809331c-.0167283.00694488-.0357638.00459843-.050378-.00595669-.0145827-.0106457-.0226457-.0280591-.0212913-.0461024l.0164528-.211484-.137594-.161496c-.0117323-.0137165-.0154567-.0325748-.00995276-.0497165.00561024-.0172323.0197559-.0302244.0372598-.0344646l.206268-.0498031.111083-.18072c.00946063-.0154252.0261299-.0248071.0442638-.0248071h.0000315c.0180236 0 .0347953.00938189.0441772.024811l.111079.180717.206248.0498031c.017622.00424016.0316535.0172323.037252.0344646.00562205.0171417.00180709.036-.0099252.0497165l-.137555.161496.0164016.211484c.00146063.0180433-.00669291.0354567-.021311.0461024-.00901575.00649606-.0196654.0099252-.0304961.0099252z"></path><path id="_264565464" d="m2.53172 5.02374c.00670079 0 .0134409.00126378.019752.00388189l.13778.0569291-.0115276-.148594c-.00109843-.0137165.00331102-.027248.0122441-.0377126l.0966457-.113413-.144823-.0350039c-.0133189-.00316142-.0249094-.0115512-.032122-.0232795l-.0779488-.126945-.0780315.126945c-.00722441.0117283-.0187835.0201181-.0321378.0232795l-.144799.0350039.0966299.113413c.00892913.0104646.0133465.0239961.0122598.0377126l-.0115276.148594.137756-.0569291c.00633465-.00261811.0130787-.00388189.0198504-.00388189zm.215917.193079c-.00678346 0-.0134606-.00135433-.0198701-.0039685l-.196047-.0809331-.196138.0809331c-.016685.00694488-.0357402.00459843-.0503543-.00595669-.0146063-.0106457-.0227362-.0280591-.0212953-.0461024l.0164331-.211484-.137594-.161496c-.0117323-.0137165-.0155276-.0325748-.00993307-.0497165.00562992-.0172323.0196732-.0302244.0372638-.0344646l.206283-.0498031.111043-.18072c.00937795-.0154252.0261496-.0248071.0442835-.0248071.0180787 0 .0348268.00938189.0442087.024811l.111098.180717.206248.0498031c.0175827.00424016.0316417.0172323.0372323.0344646.00560236.0171417.00180709.036-.00992126.0497165l-.137579.161496.0164409.211484c.00142126.0180433-.00670866.0354567-.0213228.0461024-.00900394.00649606-.0197638.0099252-.0304803.0099252z"></path><path id="_264565296" d="m3.15843 4.78483.096626.113413c.00893701.0104646.0133228.0239961.012252.0377126l-.0115197.148594.137756-.0569291c.012626-.00523228.0268661-.00523228.0395866 0l.137799.0569291-.0115787-.148594c-.00105118-.0137165.00333465-.027248.0122717-.0377126l.0966654-.113413-.144823-.0350039c-.0133583-.00316142-.0249213-.0115512-.0321417-.0232795l-.0780039-.126945-.0779528.126945c-.00723228.0117283-.0188031.0201181-.0321535.0232795l-.144783.0350039zm.470882.431988c-.00677953 0-.0134803-.00135433-.0198819-.0039685l-.19611-.0809331-.196059.0809331c-.016689.00694488-.0357638.00459843-.050378-.00595669-.0145827-.0106457-.0227362-.0280591-.0212913-.0461024l.0164488-.211484-.137594-.161496c-.0117323-.0137165-.0155433-.0325748-.00994488-.0497165.00560236-.0172323.0196614-.0302244.0372598-.0344646l.206256-.0498031.111091-.18072c.00937402-.0154252.026126-.0248071.0441693-.0248071h.00004331c.0181063 0 .034878.00938189.0442638.024811l.111067.180717.206256.0498031c.0176181.00424016.0316614.0172323.037252.0344646.00562205.0171417.00180315.036-.00991732.0497165l-.137571.161496.0164094.211484c.00133858.0180433-.00668898.0354567-.0213071.0461024-.00898425.00649606-.0197677.0099252-.0304606.0099252z"></path><path id="_264565848" d="m4.29496 5.02374c.00678346 0 .0135236.00126378.0198346.00388189l.13778.0569291-.0115315-.148594c-.00109843-.0137165.00331496-.027248.012248-.0377126l.0966417-.113413-.144823-.0350039c-.013315-.00316142-.0249055-.0115512-.032122-.0232795l-.0780276-.126945-.0779528.126945c-.00722441.0117283-.0187795.0201181-.0321299.0232795l-.144811.0350039.0966339.113413c.00893307.0104646.0132598.0239961.0122677.0377126l-.0115354.148594.137791-.0569291c.00629921-.00261811.0130433-.00388189.0197362-.00388189zm-.215917.193079c-.0107913 0-.0214724-.00342913-.0304961-.0099252-.0146063-.0106457-.0227283-.0280591-.0212874-.0461024l.0164252-.211484-.137594-.161496c-.0116929-.0137165-.0155236-.0325748-.00992913-.0497165.00562598-.0172323.0196732-.0302244.0372638-.0344646l.206283-.0498031.111035-.18072c.00938189-.0154252.0261614-.0248071.0442047-.0248071.0181575 0 .0348228.00938189.0442953.024811l.111094.180717.206252.0498031c.0174921.00424016.0316417.0172323.0372362.0344646.00551575.0171417.00180315.036-.00992126.0497165l-.137583.161496.016437.211484c.00134252.0180433-.00670079.0354567-.0213228.0461024-.0146024.0105551-.0336535.0129016-.0503465.00595669l-.19613-.0809331-.196059.0809331c-.00637402.00261417-.0130827.0039685-.0198583.0039685z"></path><path id="_264565680" d="m5.17663 5.02374c.00673622 0 .0135.00126378.0198228.00388189l.137787.0569291-.0115709-.148594c-.00105512-.0137165.00334252-.027248.0122756-.0377126l.0966535-.113413-.144815-.0350039c-.0134409-.00316142-.0249213-.0115512-.0321378-.0232795l-.0780157-.126945-.0779528.126945c-.00722441.0117283-.0187953.0201181-.0321457.0232795l-.14487.0350039.0967047.113413c.00893701.0104646.013248.0239961.0122559.0377126l-.0115197.148594.13776-.0569291c.00633071-.00261811.013063-.00388189.0197677-.00388189zm.215874.193079c-.00665748 0-.0133543-.00135433-.0197598-.0039685l-.196114-.0809331-.196059.0809331c-.016689.00694488-.0358425.00459843-.0504567-.00595669-.0145039-.0106457-.0226496-.0280591-.0212087-.0461024l.0164488-.211484-.137591-.161496c-.0117362-.0137165-.0155394-.0325748-.00994882-.0497165.00559843-.0172323.0196654-.0302244.0372598-.0344646l.20626-.0498031.111083-.18072c.00937402-.0154252.0261378-.0248071.044185-.0248071h.00002756c.0181102 0 .0347992.00938189.0442717.024811l.111067.180717.206248.0498031c.0175039.00424016.0316732.0172323.0372559.0344646.00553543.0171417.00181102.036-.00992126.0497165l-.137563.161496.0164016.211484c.00138189.0180433-.00668504.0354567-.0213031.0461024-.00898031.00649606-.019752.0099252-.0305827.0099252z"></path></g></g></svg>