<!-- icon666.com - MILLIONS vector ICONS FREE --><svg viewBox="0 0 64 64" xmlns="http://www.w3.org/2000/svg" xmlns:xlink="http://www.w3.org/1999/xlink"><linearGradient id="linear-gradient" gradientUnits="userSpaceOnUse" x1="13.26" x2="76.149" y1="81.705" y2="25.036"><stop offset=".133" stop-color="#a617ff"></stop><stop offset=".477" stop-color="#6359e3"></stop><stop offset="1" stop-color="#5bcbfa"></stop></linearGradient><linearGradient id="linear-gradient-2" x1="-13.162" x2="49.727" xlink:href="#linear-gradient" y1="52.382" y2="-4.287"></linearGradient><linearGradient id="linear-gradient-3" x1="14.651" x2="77.54" xlink:href="#linear-gradient" y1="83.248" y2="26.579"></linearGradient><linearGradient id="linear-gradient-4" x1="-6.586" x2="56.303" xlink:href="#linear-gradient" y1="59.68" y2="3.011"></linearGradient><linearGradient id="linear-gradient-5" x1="8.481" x2="71.37" xlink:href="#linear-gradient" y1="76.401" y2="19.732"></linearGradient><linearGradient id="linear-gradient-6" x1="-6.448" x2="56.44" xlink:href="#linear-gradient" y1="59.833" y2="3.164"></linearGradient><linearGradient id="linear-gradient-7" x1="3.799" x2="66.688" xlink:href="#linear-gradient" y1="71.205" y2="14.536"></linearGradient><linearGradient id="linear-gradient-8" x1=".256" x2="63.145" xlink:href="#linear-gradient" y1="67.273" y2="10.604"></linearGradient><linearGradient id="linear-gradient-9" x1="3.213" x2="66.102" xlink:href="#linear-gradient" y1="70.555" y2="13.886"></linearGradient><linearGradient id="linear-gradient-10" x1="-3.252" x2="59.637" xlink:href="#linear-gradient" y1="63.381" y2="6.711"></linearGradient><linearGradient id="linear-gradient-11" x1="-15.759" x2="47.13" xlink:href="#linear-gradient" y1="49.501" y2="-7.169"></linearGradient><linearGradient id="linear-gradient-12" x1="9.678" x2="72.567" xlink:href="#linear-gradient" y1="77.729" y2="21.06"></linearGradient><g id="Floor_Scrubber" data-name="Floor Scrubber"><path d="m51.74 51h.26v-3h-6a7.01 7.01 0 0 1 5.74 3z" fill="url(#linear-gradient)"></path><path d="m8 21h24v3h-24z" fill="url(#linear-gradient-2)"></path><path d="m46 50a5 5 0 1 0 5 5 5 5 0 0 0 -5-5zm0 7a2 2 0 1 1 2-2 2 2 0 0 1 -2 2z" fill="url(#linear-gradient-3)"></path><path d="m58.5 4h-10.11a1.007 1.007 0 0 0 -.94.65l-2.26 6.02a2.926 2.926 0 0 0 -.19 1.06v4.27h2v-.7a9.191 9.191 0 0 1 .46-2.85l1.36-4.08a2.009 2.009 0 0 1 1.9-1.37h7.78a1.5 1.5 0 0 0 0-3z" fill="url(#linear-gradient-4)"></path><path d="m34 51h6.26a7.01 7.01 0 0 1 5.74-3h-12z" fill="url(#linear-gradient-5)"></path><path d="m9.93 26h20.14v20h-20.14z" fill="url(#linear-gradient-6)"></path><path d="m33.49 53h-26.98a1 1 0 0 0 -.96.73l-1.22 4.27h2.67v3h2v-3h1v3h2v-3h1v3h2v-3h1v3h2v-3h1v3h2v-3h1v3h2v-3h1v3h2v-3h1v3h2v-3h1v3h2v-3h2.67l-1.22-4.28a1 1 0 0 0 -.96-.72z" fill="url(#linear-gradient-7)"></path><path d="m7.96 48h24.04v3h-24.04z" fill="url(#linear-gradient-8)"></path><path d="m45 22h2v20h-2z" fill="url(#linear-gradient-9)"></path><path d="m45 18h2v2h-2z" fill="url(#linear-gradient-10)"></path><path d="m34 16a1 1 0 0 0 -1-1h-26a1 1 0 0 0 -1 1v3h28z" fill="url(#linear-gradient-11)"></path><path d="m42 44h8v2h-8z" fill="url(#linear-gradient-12)"></path></g></svg>