<!-- icon666.com - MILLIONS vector ICONS FREE --><svg id="Layer_1" enable-background="new 0 0 500 500" viewBox="0 0 500 500" xmlns="http://www.w3.org/2000/svg"><g clip-rule="evenodd" fill-rule="evenodd"><path d="m39.69 413.81c-.96.74-2.94 2.24-3.3 2.78-.36.98.12 5.29.24 6.31.01.06.01.11.02.16 1.15 13.84.08 27.76 1.11 41.63 1.31 6.61 2.31 13.33 2.31 20.09 0 1.2-.2 5.51.05 7.13.71.25 1.92.42 2.52.5 13.46 1.12 27.39 2.12 40.87 1.12 4.06-.3 8.21-.34 12.23-.76 1.38-.14 3.92-.45 5.06-1.34 2.02-1.56 2.09-7.87 2.09-10.05 0-14.36 0-28.72 0-43.08 0-7.13 0-14.26 0-21.39-.14-.04-.29-.08-.43-.13-2.37-.79-4.9-1.46-6.69-3.26-.29-.17-.62-.33-.9-.47-.22-.11-.41-.22-.59-.34-3.11-1.16-14.89-.91-18.29-.83-6.76.15-13.65.67-20.38.67-3.88 0-9.41-.61-13.11.2-1.01.22-1.92.56-2.81 1.06zm110.33 41.22c.31 3.54.44 7.11.61 10.66.15 3.18.69 16.74 3.52 18.63.35.23.62.46.91.75.68.68 2.6 2.78 3.69 2.78 9.06 0 18.24-.39 27.3-.64 8.26-.22 16.58-.5 24.85-.5 3.34 0 12.94-.05 15.26-3.2 1.2-1.63 1.41-4.92 1.5-6.85.23-5.16-.08-10.5-.08-15.69 0-17.03-2.27-33.97-2.27-51.01 0-9.07 0-18.14 0-27.21 0-.52 0-1.85-.16-2.48-.41-.33-1.28-.77-1.85-1.06-1.54-.57-2.71-1.31-4.08-2.27-.95-.67-1.4-.66-2.65-.66-4.14 0-8.18 1.13-12.47 1.13-4.41 0-8.82 0-13.23 0-8.93 1.09-17.45 1.13-26.44 1.13-1.23 0-2.46-.05-3.69-.13-1.7-.11-9.03-.91-10.61-.18-.08.21-.13.55-.15.72-.02.15-.04.28-.07.43-.88 4.38-3.05 17.53-1.45 21.54.14.36.24.67.31 1.05.39 1.97.82 3.97 1.04 5.97.27 2.51.21 5.15.21 7.67zm134.22 25.83c.41.73 1.3 2.33 1.92 3.03 1.12.04 3.41-.3 4.32-.39 4.18-.39 8.25-.45 12.44-.19 7.47 0 14.94-.02 22.41-.14 6.95-.12 14.18-.23 21.13-.86 1.03-1.49 1.29-6.12 1.29-7.73 0-10.38-.04-20.77-.17-31.15-.07-5.63-.16-11.25-.34-16.88-.12-3.75-.2-7.69-.6-11.43-1.1-10.47-.03-20.77-.03-31.24 0-9.84-1.13-19.65-1.13-29.47 0-1.8.06-3.61.12-5.41.08-2.36.46-10.04-1.19-11.88-.35-.39-1.04-.5-1.53-.56-.11-.01-.21-.03-.32-.05-3.93-.66-10.16-.01-14.19.31-4.71.38-9.59.91-14.3.91-4.72 0-9.82-.55-14.55-.88-2.87-.2-5.75-.39-8.63-.51-1.22-.05-3.18-.17-4.46-.03-.31.1-.61.17-.93.22-.02.05-.05.1-.07.15-.3.61-.65 1.08-1.12 1.56-.8.8-1.5 1.39-2.35 1.98-.29.54-.61.98-1.05 1.42-.26.26-.4.5-.5.86-.42 1.49-.11 4.6-.03 6.61 1.16 5.37.04 10.03.02 15.35l2.26 42.91c.01.11.01.2.01.32 0 20.3 0 40.61 1.12 60.88.01.12.01.22.01.33 0 2.11-.12 4.19-.23 6.3-.06 1.16-.12 2.43.04 3.58.1.75.31 1.41.63 2.08zm170.69-218.75c-8.08.02-16.16.09-24.24.3-6.9.18-13.86.43-20.74 1-1.57.13-5.16.42-7.93.88.34 4.67.85 9.6.87 14.23.01 1.96-.11 3.91-.24 5.86-.23 3.54-.48 7.08-.7 10.63.02 1.47.3 3.02.54 4.46.37 2.21.71 4.37.71 6.62 0 .19-.01.34-.02.53-1.99 22.52-1.51 45.88-.84 68.47.73 24.44 2.11 49.01 2.11 73.45 0 .14 0 .26-.01.4-.48 7.17-1.2 14.24-1.95 21.38-.12 1.12-.47 3.97-.55 6.05 1.68-.1 3.78-.37 4.72-.46 5.62-.54 11.13-.88 16.78-.88 5.27 0 10.53.07 15.79.14 3.63.04 7.29.11 10.92-.03 1.3-.05 6.71-.29 7.69-1.34 1.1-1.17 1-7.68.98-9.17-.06-4.14-.27-8.3-.42-12.44-.21-5.94-.35-11.88-.35-17.82 0-.16.01-.3.02-.46 1.22-15.81-.66-31.65-1.87-47.39-.01-.16-.02-.3-.02-.46v-54.98c0-5.25-.25-10.52-.56-15.77-.35-5.88-.81-11.75-1.23-17.62-.33-4.65-.7-9.43-.7-14.09 0-.3.02-.55.06-.85.95-6.73 1.14-13.75 1.18-20.64zm-198.63-27.39 14.69-16.95c.1-.11.18-.21.27-.33 3.76-5.01 7.39-9.88 10.57-15.3 7.9-13.42 18.23-52.39 15.47-67.6-.52-2.88-2.98-4.93-5.9-4.93-11.06 0-22.45-.05-33.45 1.16-1.1.09-3.21.14-3.95-.87-1.06-1.44-.78-4.67-.49-6.31.24-1.38.63-2.78 1.14-4.11l30.96-36.49c9.54-9.54 19.21-18.95 28.76-28.48 5.63-5.62 11.24-11.28 16.76-17.02 4.62-4.8 9.23-9.69 13.57-14.75.34-.39.58-.76.81-1.22.83-1.65 4.36-6.17 5.68-7.51.6-.6 1.01-1.22 1.32-2.01.44-1.1.98-2.12 1.91-2.86 1.43-1.14 4.14-2.09 5.91-2.79.76-.25 1.96-.6 2.68-.18 1.07.62 2.6 2.42 3.5 3.32 6.52 6.52 12.72 12.95 18.81 19.89 5.37 7.5 11.2 14.56 17.1 21.65.08.1.16.18.25.28l57.82 61.22c.04.04.08.08.12.12 1.82 1.82 3.59 6.49 2.96 9.04-.06.25-.1.46-.13.71-.5.71-3.06 1.49-3.82 1.69-3.29.85-6.99 1.15-10.38 1.37-3.95.26-7.93.37-11.87.75-6.67-.03-13.57-1.2-20.16.12-2.17.43-3.82 1.89-4.51 3.99-.59 1.78-1.04 3.56-1.39 5.4-.49 2.56-.8 5.15-1.28 7.71-.74 3.98-1.78 7.88-2.97 11.74l-16.88 42.76c-3.9 8.89-9.23 17.69-14.55 25.79-6.35 9.67-13.34 19.26-20.74 28.15-16.82 19.03-46.13 39.47-69.11 50.48-7.43 2.46-14.95 4.63-21.97 8.14-.1.05-.19.1-.29.16-2.66 1.52-5.75 2.83-8.57 4.05-4.23 1.82-8.5 3.55-12.78 5.25-7.3 2.89-14.64 5.68-21.99 8.43-3.83 1.43-7.7 1.97-11.72 2.5-4.88.65-9.41 1.35-14.06 3.06-16.57 4.4-33.43 6.96-50.27 10.02-18.13 3.3-36.92 2.2-55.22 4.48-.15.02-.28.04-.43.07-7.21 1.44-14.28 1.1-21.51.08-6.23-.87-12.99-2.47-19.25-2.47-1.06 0-4.6.26-5.88.1-.04-.07-.07-.13-.1-.18-.03-.07-.06-.12-.1-.19-.55-1.02-2.33-4.59-1.67-5.83 1.24-2.34 10.07-3.89 12.4-4.27 9.49-1.55 19.08-2.22 28.58-3.94 5.98-1.08 11.98-2.51 17.66-4.7.07-.03.14-.05.21-.09 7.46-3.2 15.38-5.46 22.66-9.05l43.88-15.75c.3-.11.54-.22.82-.36 30.61-16.49 67.84-40.2 90.12-67.14z" fill="#f9f06d"></path><path d="m73.77 340.82c3.4-1.13 18.14-3.4 23.81-5.67l68.02-24.94c14.74-6.8 27.21-13.6 39.68-22.67 19.27-13.6 17-10.2 35.14-26.07 17-14.74 17-17 30.61-31.74 9.07-11.34 18.14-21.54 23.81-38.54 5.67-13.6 10.2-34.01 11.34-49.88 1.13-10.2 2.27-21.54-10.2-19.27-9.07 1.13-21.54 0-31.74 0 1.13-5.67 7.94-11.34 11.34-14.74 3.4-4.53 6.8-10.2 11.34-13.6l62.35-64.62c3.4-4.53 6.8-9.07 11.34-13.6 4.53 1.13 17 18.14 22.67 23.81l22.67 26.07c7.94 7.94 15.87 18.14 23.81 26.07 3.4 4.53 7.94 7.94 11.34 11.34 2.27 3.4 10.2 11.34 12.47 13.6-3.4 2.27-13.6 1.13-17 1.13-15.87 1.13-7.94-1.13-21.54 2.27-3.4 1.13-7.94 0-10.2 4.53-1.13 3.4-1.13 13.6-2.27 17-1.13 9.07-6.8 20.41-9.07 28.34-4.53 9.07-6.8 18.14-11.34 27.21-6.8 17-19.27 32.88-30.61 45.35-15.87 20.41-38.54 36.28-63.48 49.88l-53.28 22.67c-9.07 3.4-17 7.94-29.47 9.07-11.34 1.13-19.27 4.53-29.47 6.8-11.34 2.27-22.67 3.4-32.88 5.67-7.97 1.13-64.65 6.8-69.19 4.53zm-29.47 79.36h49.88c1.13 7.94 1.13 58.95 0 64.62-4.53 1.13-41.94 2.27-45.35 0-1.13-1.13 0 1.13-1.13-1.13l-2.27-30.61c0-9.08-1.13-23.81-1.13-32.88zm-13.61 3.4c1.13 13.6 0 27.21 1.13 41.94 1.13 5.67 2.27 12.47 2.27 19.27 0 9.07-1.13 12.47 7.94 13.6 13.6 1.13 28.34 2.27 41.94 1.13 17-1.13 24.94 1.13 24.94-18.14 0-13.6 0-28.34 0-43.08 0-6.8 0-14.74 0-21.54 0-3.4-2.27-5.67-4.53-5.67-6.8-2.27-2.27-1.13-6.8-3.4-4.53-3.4-34.01-1.13-41.94-1.13s-13.6-1.13-19.27 2.27c-5.68 4.54-6.81 4.54-5.68 14.75zm124.7-37.41c10.2-1.13 21.54 1.13 31.74 0l30.61-1.13v23.81c0 7.94 1.13 14.74 1.13 22.67 0 13.6 2.27 35.14 0 47.61-9.07 0-53.28 1.13-58.95 0-4.53-13.6-1.13-68.02-2.27-71.42-1.13-5.67-2.27-2.27-2.27-10.2.01-3.41.01-7.94.01-11.34zm-12.47 17c1.13 5.67 1.13 5.67 1.13 12.47v39.68c1.13 12.47 0 29.47 6.8 34.01 2.27 2.27 4.53 4.53 7.94 4.53 9.07 0 39.68-1.13 52.15-1.13 26.07 0 22.67-9.07 22.67-31.74 0-17-2.27-34.01-2.27-51.01 0-9.07 0-18.14 0-27.21 0-5.67-1.13-6.8-5.67-9.07-3.4-1.13-3.4-3.4-9.07-3.4-4.53 0-7.94 1.13-12.47 1.13s-9.07 0-13.6 0c-9.07 1.13-15.87 1.13-26.07 1.13-9.07 0-19.27-3.4-20.41 5.67-1.13 5.67-3.39 19.27-1.13 24.94zm146.24-58.95c5.67 0 17 1.13 23.81 1.13 7.94 0 15.87-1.13 23.81 0 2.27 14.74 1.13 47.61 2.27 63.48 1.13 19.27 2.27 46.48 0 65.75-11.34 0-37.41 3.4-47.61 0-2.27-7.94 0-23.81 0-34.01-1.15-16.99-2.28-82.74-2.28-96.35zm54.41-13.6c-6.8-1.13-21.54 1.13-29.47 1.13-5.67 0-27.21-2.27-29.47-1.13-3.4 0-3.4 1.13-4.53 3.4-2.27 2.27-2.27 1.13-3.4 3.4-3.4 3.4-2.27 7.94-2.27 12.47 1.13 4.53 0 10.2 0 14.74l2.27 43.08c0 20.41 0 40.81 1.13 61.22 0 6.8-1.13 10.2 1.13 14.74 5.67 10.2 5.67 4.53 23.81 5.67 11.34 0 34.01 0 45.35-1.13 4.53-1.13 5.67-7.94 5.67-13.6 0-3.4 0-48.75-1.13-60.08-1.13-10.2 0-20.4 0-30.61 0-10.2-1.13-20.41-1.13-29.47-.02-10.23 2.25-22.7-7.96-23.83zm52.42-70.75v3.75c1.25 18.74 1.25 11.25 0 31.24 0 3.75 1.25 7.5 1.25 11.25-3.75 42.49 1.25 101.22 1.25 142.46-2.93 43.95-9.5 32.49 24.99 32.49 50.52 0 40.6 5.74 40.6-46.66 1.25-16.25-.62-32.07-1.87-48.31v-54.98c0-16.24-2.5-37.49-2.5-47.48 1.25-8.75 1.25-18.74 1.25-27.49-14.99-.02-58.73-.02-64.97 3.73zm14.92 15.94v2.09c.7 10.47.7 6.28 0 17.44 0 2.09.7 4.19.7 6.28-4.6 52.14 3.04 108.73-.48 161.46 1.35 3.7 8.15.76 15.13.76h22.33c3.08-36.95-.7-108.43-.7-148.26 0-9.07-1.4-20.93-1.4-26.52.7-4.88.7-10.47.7-15.35-8.37 0-32.79 0-36.28 2.1zm-63.93-266.01c-1.13 1.13-5.67 6.8-6.8 9.07-13.6 15.87-43.08 44.21-58.95 60.08l-31.74 37.41c-3.4 7.94-4.53 21.54 9.07 20.41 10.2-1.13 22.67-1.13 32.88-1.13 2.27 12.47-6.8 49.88-14.74 63.48-3.4 5.67-6.8 10.2-10.2 14.74l-14.74 17c-21.54 26.07-58.95 49.88-88.42 65.75l-44.21 15.87c-6.8 3.4-14.74 5.67-22.67 9.07-29.47 11.34-73.69 2.27-60.08 27.21 2.27 4.53 5.67 3.4 11.34 3.4 10.2 0 24.94 5.67 41.94 2.27 18.14-2.27 37.41-1.13 55.55-4.53 19.27-3.4 34.01-5.67 51.01-10.2 9.07-3.4 17-2.27 26.07-5.67s36.28-13.6 44.21-18.14c6.8-3.4 14.74-5.67 21.54-7.94 23.81-11.34 54.41-32.88 71.42-52.15 11.34-13.6 28.34-37.41 36.28-55.55l17-43.08c4.53-14.74 3.4-18.14 5.67-24.94 5.67-1.13 12.47 0 19.27 0 11.34-1.13 30.61 0 31.74-9.07 1.13-4.53-1.13-11.34-4.53-14.74l-57.82-61.22c-5.67-6.8-11.34-13.6-17-21.54-7.94-9.07-12.47-13.6-19.27-20.41-3.4-3.4-5.67-6.8-12.47-4.53-5.69 2.28-9.09 3.42-11.35 9.08z" fill="#010101"></path></g></svg>