<!-- icon666.com - MILLIONS vector ICONS FREE --><svg id="Layer_1" enable-background="new 0 0 500 500" viewBox="0 0 500 500" xmlns="http://www.w3.org/2000/svg"><path clip-rule="evenodd" d="m403.14 252.2c6.45-3.87 51.58-3.87 67.05-3.87 0 9.03 0 19.34-1.29 28.37 0 10.32 2.58 32.24 2.58 49v56.74c1.29 16.76 3.22 33.09 1.93 49.85 0 54.07 10.23 48.15-41.9 48.15-35.59 0-28.81 11.83-25.79-33.53 0-42.55-5.16-103.16-1.29-147 0-3.87-1.29-7.74-1.29-11.61 1.29-20.63 1.29-12.89 0-32.24zm-332.5 83.54c4.68 2.34 63.17-3.51 71.36-4.68 10.53-2.34 22.23-3.51 33.93-5.85 10.53-2.34 18.72-5.85 30.42-7.02 12.87-1.17 21.06-5.85 30.42-9.36l54.98-23.4c25.74-14.04 49.13-30.42 65.51-51.47 11.7-12.87 24.57-29.25 31.58-46.79 4.68-9.36 7.02-18.72 11.7-28.08 2.34-8.19 8.19-19.89 9.36-29.25 1.17-3.51 1.17-14.04 2.34-17.55 2.34-4.68 7.02-3.51 10.53-4.68 14.04-3.51 5.85-1.17 22.23-2.34 3.51 0 14.04 1.17 17.55-1.17-2.34-2.34-10.53-10.53-12.87-14.04-3.51-3.51-8.19-7.02-11.7-11.7-8.19-8.19-16.38-18.72-24.57-26.91l-23.41-26.88c-5.85-5.85-18.72-23.4-23.4-24.57-4.68 4.68-8.19 9.36-11.7 14.04l-64.34 66.68c-4.68 3.51-8.19 9.36-11.7 14.04-3.51 3.51-10.53 9.36-11.7 15.21 10.53 0 23.4 1.17 32.75 0 12.87-2.34 11.7 9.36 10.53 19.89-1.17 16.38-5.85 37.43-11.7 51.47-5.85 17.55-15.21 28.08-24.57 39.77-14.04 15.21-14.04 17.55-31.59 32.76-18.72 16.38-16.38 12.87-36.26 26.91-12.87 9.36-25.74 16.38-40.94 23.4l-70.18 25.72c-5.85 2.34-21.05 4.68-24.56 5.85zm-44.46 85.4c1.17 14.04 0 28.08 1.17 43.28 1.17 5.85 2.34 12.87 2.34 19.89 0 9.36-1.17 12.87 8.19 14.04 14.04 1.17 29.25 2.34 43.28 1.17 17.55-1.17 25.74 1.17 25.74-18.72 0-14.04 0-29.25 0-44.45 0-7.02 0-15.21 0-22.23 0-3.51-2.34-5.85-4.68-5.85-7.02-2.34-2.34-1.17-7.02-3.51-4.68-3.51-35.09-1.17-43.28-1.17s-14.04-1.17-19.89 2.34c-5.85 4.68-7.02 4.68-5.85 15.21zm115.82-21.06c1.17 5.85 1.17 5.85 1.17 12.87v40.94c1.17 12.87 0 30.42 7.02 35.09 2.34 2.34 4.68 4.68 8.19 4.68 9.36 0 40.94-1.17 53.81-1.17 26.91 0 23.4-9.36 23.4-32.75 0-17.55-2.34-35.09-2.34-52.64 0-9.36 0-18.72 0-28.08 0-5.85-1.17-7.02-5.85-9.36-3.51-1.17-3.51-3.51-9.36-3.51-4.68 0-8.19 1.17-12.87 1.17s-9.36 0-14.04 0c-9.36 1.17-16.38 1.17-26.91 1.17-9.36 0-19.89-3.51-21.06 5.85-1.16 5.85-3.5 19.89-1.16 25.74zm207.06-74.87c10.53 1.17 8.19 14.04 8.19 24.57 0 9.36 1.17 19.89 1.17 30.42s-1.17 21.06 0 31.58c1.17 11.7 1.17 58.49 1.17 62 0 5.85-1.17 12.87-5.85 14.04-11.7 1.17-35.09 1.17-46.79 1.17-18.72-1.17-18.72 4.68-24.57-5.85-2.34-4.68-1.17-8.19-1.17-15.21-1.17-21.06-1.17-42.11-1.17-63.17l-2.34-44.45c0-4.68 1.17-10.53 0-15.21 0-4.68-1.17-9.36 2.34-12.87 1.17-2.34 1.17-1.17 3.51-3.51 1.17-2.34 1.17-3.51 4.68-3.51 2.34-1.17 24.57 1.17 30.42 1.17 8.18 0 23.39-2.34 30.41-1.17z" fill="#00a651" fill-rule="evenodd"></path></svg>