<!-- icon666.com - MILLIONS vector ICONS FREE --><svg id="Layer_1" enable-background="new 0 0 50 50" viewBox="0 0 50 50" xmlns="http://www.w3.org/2000/svg"><g><g><path d="m5.067 35.096 6.361-1.656c2.517-1.611 5.654-1.916 8.434-.821 2.897 1.141 4.011 1.731 6.079 1.721l7.179-.035c1.244-.006 2.383.694 2.939 1.807l8.761-3.877c.6-.265 1.243-.427 1.899-.444.735-.02 1.576.127 2.004.795 0 0 .962 1.282-.695 2.191-.454.249-10.429 6.394-10.9 6.498 0 0-6.518 3.013-7.854 4.402 0 0-1.924 2.832-4.755.801 0 0-10.9-5.557-14.159-2.725l-4.381.855z" fill="#eac18b"></path><path d="m34.452 39.439c-4.957 2.124-7.732 1.361-10.312 1.098-.083-.008-2.719-.255-2.78-.311-.033-.028-.048-.054-.048-.054.099-.122 2.693.089 2.85.099 5.494.338 4.487.474 9.696-1.284 1.181-.404 1.834-1.395 1.866-2.44.008-.305-.036-.574-.088-.791-.049-.197-.107-.351-.152-.456.229.235.424.507.576.811l.371-.164c.188 1.544-.63 2.903-1.979 3.492z" fill="#d2ad7d"></path><path d="m33.767 34.912-1.595-.11c-.203-.014-.375.147-.375.35v2.988c0 .203.172.364.375.35 1.219-.084 3.214.048 3.214-1.844 0-.913-.708-1.671-1.619-1.734z" fill="#d7dadc"></path><path d="m48.954 33.772c-.096.334-.357.692-.927 1.004l-2.237 1.354c-.104-.511.337-1.269 1.111-1.836.757-.554 1.591-.751 2.053-.522z" fill="#d7dadc"></path><path d="m1 48.473 9.706-1.864c.539-.104.894-.622.795-1.162l-2.082-11.397c-.1-.549-.631-.91-1.179-.801l-7.24 1.44z" fill="#4fb7e4"></path><path d="m1 49.005 7.49-1.181c.559-.088.934-.622.826-1.178l-2.343-13.026c-.105-.54-.626-.895-1.166-.793l-4.807.903z" fill="#555"></path></g><g><path d="m32.331 19.93v5.063c0 .338-.269.607-.607.607h-1.656c-.338 0-.607-.269-.607-.607v-5.063c0-.338.269-.607.607-.607h1.656c.338 0 .607.269.607.607z" fill="#e46047"></path><path d="m22.161 19.583v5.41c0 .338-.277.607-.607.607h-1.664c-.338 0-.607-.269-.607-.607v-5.41c0-.33.269-.607.607-.607h1.665c.329 0 .606.277.606.607z" fill="#e46047"></path><path d="m27.242 16.158v8.835c0 .338-.269.607-.607.607h-1.656c-.338 0-.607-.269-.607-.607v-8.835c0-.329.269-.607.607-.607h1.656c.338 0 .607.278.607.607z" fill="#ffd45a"></path><path d="m42.51 12.734v12.259c0 .338-.269.607-.607.607h-1.665c-.329 0-.607-.269-.607-.607v-12.259c0-.329.277-.607.607-.607h1.665c.338 0 .607.277.607.607z" fill="#5ba658"></path><path d="m37.42 16.158v8.835c0 .338-.269.607-.607.607h-1.656c-.338 0-.607-.269-.607-.607v-8.835c0-.329.269-.607.607-.607h1.656c.339 0 .607.278.607.607z" fill="#4fb7e4"></path><path d="m19.516 16.652c-.234-.256-.205-.639.039-.862l5.459-4.972c.112-.103.259-.158.411-.158.136 0 .264.043.372.126l5.112 3.95 12.702-8.872c.286-.199.663-.119.849.148.2.285.118.665-.148.849l-13.069 9.13c-.103.072-.224.11-.349.11-.135 0-.268-.045-.374-.127l-5.063-3.911-5.082 4.629c-.244.22-.631.213-.859-.04z" fill="#d7dadc"></path><path d="m43.707 8.933-2.461-3.101c-.229-.289-.033-.715.334-.73l3.366-.145c.306-.013.535.276.453.571l-.905 3.245c-.098.354-.56.445-.787.16z" fill="#d7dadc"></path><g><g><path d="m43.843 29.047h-26.452v-26.061c-.2.014-.398.03-.608.03-.238 0-.464-.016-.69-.034v26.714c0 .359.291.649.649.649h27.104c-.033-.431-.032-.866-.003-1.298z" fill="#555"></path></g><g fill="#555"><path d="m18.603 3.753c.105.169-.015.383-.209.383h-3.301c-.199 0-.314-.214-.214-.383l1.653-2.639c.095-.159.324-.159.423 0z"></path><path d="m45.326 29.908-2.643 1.647c-.164.104-.383-.015-.383-.209v-3.3c0-.199.219-.318.383-.214l2.643 1.652c.154.096.154.325 0 .424z"></path></g></g></g></g></svg>