<!-- icon666.com - MILLIONS OF FREE VECTOR ICONS --><svg id="Layer_1" enable-background="new 0 0 512 512" viewBox="0 0 512 512" xmlns="http://www.w3.org/2000/svg" xmlns:xlink="http://www.w3.org/1999/xlink"><linearGradient id="SVGID_1_" gradientUnits="userSpaceOnUse" x1="133.142" x2="378.859" y1="337.016" y2="91.299"><stop offset="0" stop-color="#fc4422"></stop><stop offset="1" stop-color="#ffbb32"></stop></linearGradient><path d="m236.64 345.265-17.022 24.191v.008l-1.974 2.816c-2.513 3.585-6.048 5.827-10.526 5.377-2.282-.229-4.669-1.189-6.544-2.51s-3.578-3.235-4.565-5.304c-1.835-3.851-1.097-7.759 1.14-11.203v-.03l26.117-37.121.013-.013c2.511-3.496 6.014-5.678 10.431-5.237 2.281.228 4.659 1.186 6.534 2.507 1.876 1.322 3.581 3.239 4.566 5.31 1.93 4.056 1.014 8.154-1.5 11.728zm-21.59-33.238c2.51-3.574 3.425-7.671 1.497-11.726-.984-2.069-2.689-3.99-4.564-5.308-1.877-1.319-4.256-2.276-6.538-2.504-4.476-.447-8.012 1.795-10.529 5.375l-6.736 9.579h-.934v1.313l-18.031 25.638-5.446 7.747c-2.522 3.588-3.386 7.616-1.502 11.682 1.96 4.23 6.507 7.431 11.151 7.844 4.461.397 7.958-1.774 10.48-5.358l3.651-5.188 25.687-36.513zm-65.813-170.747-35.378-20.428c-1.476-.852-3.146-1.302-4.85-1.302-.873 0-1.733.116-2.576.341-2.529.674-4.657 2.283-5.967 4.55l-62.091 107.54c-2.698 4.674-1.077 10.694 3.594 13.392l35.378 20.428c2.259 1.305 4.922 1.638 7.44.96 2.516-.678 4.648-2.291 5.953-4.549l62.091-107.54c2.702-4.681 1.085-10.69-3.594-13.392zm28.774 160.245v-.784c2.234-3.445 2.965-7.351 1.127-11.198-.987-2.066-2.693-3.983-4.568-5.3-1.876-1.318-4.256-2.273-6.536-2.5-4.474-.446-8.01 1.793-10.526 5.371l-18.371 26.122c-2.513 3.574-3.431 7.67-1.5 11.726.988 2.074 2.687 3.98 4.563 5.305 1.868 1.321 4.258 2.278 6.531 2.506 4.412.443 7.914-1.727 10.426-5.219l.013-.013 18.128-25.769zm295.612-69.544-62.091-107.54c-1.308-2.265-3.44-3.873-5.965-4.55-.839-.225-1.709-.342-2.578-.342-1.71 0-3.369.447-4.85 1.302l-35.383 20.428c-2.262 1.306-3.875 3.432-4.554 5.953-.677 2.517-.339 5.181.964 7.439l62.086 107.54c1.308 2.265 3.437 3.874 5.96 4.55 2.515.674 5.176.342 7.432-.96l35.382-20.424c4.678-2.698 6.296-8.72 3.597-13.396zm-227.302 121.065-.443.217-15.95 22.694-.055.486c-.607 5.33 3.092 10.194 7.759 12.358 5.754 2.668 11.154 1.014 14.807-4.18l9.214-13.099c3.655-5.196 3.376-10.819-1.075-15.331-3.626-3.673-9.419-5.515-14.257-3.145zm104.526-185.571c-14.926 4.211-30.234 6.007-45.726 5.528-11.936-.369-23.567-2.087-35.212-4.651-8.604-1.893-17.786-3.275-26.431-.859-6.61 1.847-12.254 5.68-17.504 9.987-3.424 2.809-6.697 5.831-9.906 8.88-4.056 3.855-8.038 7.793-12.025 11.719-3.102 3.055-6.206 6.107-9.324 9.146l-.542.528-2.009 42.189c-.091 1.914.033 5.217 1.872 6.378 1.582.998 4.188.765 5.937.443 3.331-.613 6.706-2.061 9.671-3.663 6.51-3.516 11.905-15.884 14.97-22.433 1.467-3.133 2.932-6.281 4.554-9.338.624-1.176 1.621-2.114 2.829-2.671 1.457-.672 2.908-1.359 4.358-2.047 7.287-3.457 14.955-7.115 22.992-8.377 7.65-1.201 14.656-.011 21.385 3.884l96.081 55.622 25.943-13.246-50.478-87.423zm22.722 112.431-98.921-57.264c-2.182-1.263-4.504-2.116-7.004-2.477-4.083-.59-8.187.214-12.067 1.476-4.767 1.55-9.476 3.803-14.001 5.953-.661.313-1.321.627-1.983.938l-.607.285-.298.6c-1.052 2.119-2.058 4.262-3.06 6.404-4.559 9.74-10.405 22.695-20.202 27.984-7.983 4.31-19.424 8.117-27.857 2.811-2.094-1.317-3.818-3.153-5.054-5.292-2.089-3.613-2.682-7.841-2.486-11.958l2.118-44.587c.073-1.543.725-3.007 1.836-4.082 3.861-3.739 7.695-7.505 11.522-11.278 1.594-1.572 3.193-3.138 4.789-4.709l2.18-2.147-42.87-15.313-51.484 89.189 29.856 37.301 9.584-13.62c5.816-8.266 14.781-12.266 24.749-9.97 1.562.359 3.089.867 4.557 1.507 1.65.719 3.228 1.606 4.7 2.641 3.25 2.284 6.003 5.307 7.918 8.792l.989 1.8 1.729-1.109c8.344-5.349 18.881-4.287 26.779 1.271 5.709 4.017 9.857 10.28 10.66 17.286l.203 1.771 1.781-.071c5.549-.222 11.092 1.585 15.615 4.769 9.437 6.645 13.603 18.309 8.743 29.202l-.921 2.064 2.186.575c4.564 1.201 8.682 3.657 11.99 7.013 7.633 7.743 9.29 18.33 4.137 27.93l-.877 1.634 22.813 13.282c3.779 2.2 7.927 2.764 11.807.493 1.977-1.157 3.743-3.02 4.896-5.001 1.153-1.982 1.903-4.435 1.937-6.727.065-4.493-2.461-7.826-6.236-10.031l-.449-.262h-.011l-26.195-15.247c-2.899-1.687-3.868-5.418-2.184-8.313 1.687-2.898 5.404-3.886 8.303-2.198l26.598 15.485c.038.024.077.047.117.068l8.274 4.815c3.781 2.201 7.932 2.764 11.814.492 1.974-1.155 3.747-3.022 4.896-5.003 1.151-1.986 1.9-4.431 1.932-6.725.062-4.408-2.372-7.697-6.029-9.901l-.015-.015-32.862-19.137c-2.895-1.685-3.869-5.426-2.185-8.317 1.688-2.897 5.408-3.87 8.304-2.184l33.108 19.269h.008l10.012 5.84c3.78 2.205 7.89 2.716 11.771.496 4.049-2.316 6.84-7.124 6.858-11.787.017-4.481-2.447-7.777-6.235-9.985l-8.459-4.93-32.332-18.826c-2.897-1.687-3.887-5.414-2.199-8.313 1.688-2.897 5.419-3.887 8.318-2.199l32.332 18.83c3.781 2.202 7.927 2.758 11.804.478 1.979-1.163 3.728-3.02 4.888-5.001 1.159-1.979 1.911-4.45 1.942-6.741.061-4.5-2.48-7.83-6.27-10.024z" fill="url(#SVGID_1_)" style="fill: rgb(255, 255, 255);"></path></svg>