<!-- icon666.com - MILLIONS vector ICONS FREE --><svg id="Capa_1" enable-background="new 0 0 512 512" viewBox="0 0 512 512" xmlns="http://www.w3.org/2000/svg"><g><g><path d="m378.655 23.053c2.939-4.619 3.129-10.472.494-15.271-2.634-4.799-7.674-7.782-13.149-7.782h-220c-5.475 0-10.515 2.983-13.149 7.782-2.635 4.799-2.445 10.653.494 15.271l39.421 61.947h166.468z" fill="#f03c5a"></path></g><g><path d="m379.149 7.782c-2.634-4.799-7.674-7.782-13.149-7.782h-110v85h83.234l39.421-61.947c2.939-4.618 3.129-10.472.494-15.271z" fill="#be0f2e"></path></g><path d="m408.368 30.781-32.765-27.304c-1.109-.924-2.339-1.656-3.637-2.22l-115.966 182.232-115.966-182.232c-1.297.563-2.528 1.295-3.636 2.219l-32.766 27.305c-21.349 17.79-26.063 48.8-10.967 72.131l90.741 140.236c2.764 4.273 7.506 6.852 12.594 6.852l103.99 2.616-1.665-2.616h17.675c5.088 0 9.83-2.579 12.594-6.851l90.741-140.237c15.096-23.331 10.382-54.341-10.967-72.131z" fill="#ff718e"></path><path d="m298.325 250h17.675c5.088 0 9.83-2.579 12.594-6.851l90.741-140.237c15.096-23.331 10.382-54.341-10.967-72.131l-32.765-27.304c-1.109-.924-2.339-1.656-3.637-2.22l-115.966 182.232v68.021l43.354.108z" fill="#f03c5a"></path><path d="m182.186 241.263 23.486 82.643h100.656l23.486-82.643z" fill="#ffcd1e"></path><g><path d="m329.814 241.263h-73.814v82.643h50.328z" fill="#faa500"></path></g><circle cx="256" cy="397" fill="#ffcd1e" r="100"></circle><g><path d="m256 297v200c55.228 0 100-44.772 100-100 0-55.229-44.772-100-100-100z" fill="#faa500"></path></g><path d="m256 512c-63.411 0-115-51.589-115-115s51.589-115 115-115 115 51.589 115 115-51.589 115-115 115zm0-200c-46.869 0-85 38.131-85 85s38.131 85 85 85 85-38.131 85-85-38.131-85-85-85z" fill="#ffe66e"></path><g><path d="m256 282v30c46.869 0 85 38.131 85 85s-38.131 85-85 85v30c63.411 0 115-51.589 115-115s-51.589-115-115-115z" fill="#ffcd1e"></path></g><path d="m256 452c-30.327 0-55-24.673-55-55s24.673-55 55-55 55 24.673 55 55-24.673 55-55 55z" fill="#ffe66e"></path><g><g><path d="m256 342v110c30.327 0 55-24.673 55-55s-24.673-55-55-55z" fill="#ffcd1e"></path></g></g></g></svg>