<!-- icon666.com - MILLIONS vector ICONS FREE --><svg id="Layer_1" enable-background="new 0 0 256 256" viewBox="0 0 256 256" xmlns="http://www.w3.org/2000/svg"><g><g><path d="m97.459 162.629h-52.009c-4.971 0-9 4.029-9 9v72.371c0 4.971 4.029 9 9 9h162c4.971 0 9-4.029 9-9v-72.371c0-4.971-4.029-9-9-9z" fill="#f9a7a7"></path></g><g><path d="m100.799 162.629h-36.914l.101.488c1.087 5.271 3.697 10.014 7.55 13.716l5.527 5.313 6.56 43.905c1.175 7.868 8.06 13.801 16.015 13.801 7.568 0 14.053-5.148 15.77-12.519l8.501-36.486c.277-1.187 1.321-2.016 2.54-2.016s2.263.829 2.54 2.016l8.501 36.486c1.717 7.371 8.202 12.519 15.77 12.519 7.955 0 14.84-5.933 16.015-13.8l6.56-43.906 5.527-5.312c3.852-3.703 6.463-8.446 7.55-13.717l.101-.488z" fill="#f9cfcf"></path></g><g><path d="m207.45 255h-162c-6.065 0-11-4.935-11-11v-72.371c0-6.065 4.935-11 11-11h162c6.065 0 11 4.935 11 11v72.371c0 6.065-4.935 11-11 11zm-162-90.371c-3.86 0-7 3.14-7 7v72.371c0 3.86 3.14 7 7 7h162c3.86 0 7-3.14 7-7v-72.371c0-3.86-3.14-7-7-7z" fill="#3762cc"></path></g><g><path d="m121.554 108.11c-1.811-3.563-5.469-5.808-9.467-5.808h-19.7c-11.45 0-20.733 9.282-20.733 20.733v34.802c0 13.327 12.498 16.208 13.427 22.427l6.66 44.576c.584 3.91 3.943 6.804 7.896 6.804 3.711 0 6.933-2.558 7.776-6.172l8.501-36.486c1.141-4.897 5.506-8.362 10.534-8.362 5.028 0 9.393 3.465 10.534 8.362l8.501 36.486c.842 3.615 4.064 6.172 7.776 6.172 3.954 0 7.312-2.894 7.896-6.804 7.199-48.182 6.396-46.117 8.502-48.141 6.038-5.804 11.586-9.786 11.586-18.862v-34.802c0-11.45-9.282-20.733-20.733-20.733h-19.7c-3.997 0-7.656 2.245-9.467 5.808-1.784 3.51-5.895 3.003-4.895 3.003-3.979 0-5.402-4.003-4.894-3.003z" fill="#e0ebfc"></path></g><g><path d="m153.261 233.644c-4.666 0-8.665-3.174-9.724-7.718l-8.501-36.486c-.935-4.013-4.466-6.815-8.586-6.815-4.121 0-7.652 2.803-8.587 6.816l-8.501 36.485c-1.059 4.545-5.058 7.719-9.724 7.719-4.904 0-9.149-3.658-9.875-8.509l-6.66-44.576c-.255-1.71-2.118-3.4-4.275-5.358-3.872-3.515-9.174-8.328-9.174-17.364v-34.802c0-12.535 10.198-22.733 22.733-22.733h19.7c4.775 0 9.086 2.645 11.25 6.902.035.069.066.14.093.21.325.495 1.295 1.699 3.02 1.699.077 0 .154.004.229.013.565-.055 2.084-.35 2.883-1.923 2.164-4.257 6.475-6.902 11.25-6.902h19.7c12.535 0 22.733 10.198 22.733 22.733v34.802c0 8.881-4.919 13.479-10.127 18.348-.679.635-1.373 1.283-2.073 1.956l-.201.19c-.916.862-1.067 1.685-4.043 21.997-.92 6.277-2.104 14.361-3.665 24.807-.726 4.851-4.971 8.509-9.875 8.509zm-26.811-55.02c5.99 0 11.123 4.074 12.482 9.908l8.501 36.486c.635 2.724 3.031 4.626 5.828 4.626 2.939 0 5.484-2.192 5.918-5.1 1.56-10.441 2.744-18.522 3.664-24.796 3.294-22.479 3.294-22.479 5.259-24.33l.171-.162c.714-.686 1.421-1.347 2.113-1.995 5.143-4.808 8.859-8.281 8.859-15.426v-34.802c0-10.33-8.403-18.733-18.733-18.733h-19.7c-3.262 0-6.206 1.807-7.684 4.714-1.856 3.653-5.604 4.233-7.041 4.089-3.781-.171-5.873-2.987-6.449-4.343-1.517-2.758-4.384-4.46-7.549-4.46h-19.7c-10.33 0-18.733 8.403-18.733 18.733v34.802c0 7.265 4.177 11.057 7.863 14.402 2.61 2.37 5.076 4.608 5.542 7.729l6.66 44.576c.435 2.907 2.979 5.1 5.918 5.1 2.797 0 5.193-1.902 5.828-4.626l8.501-36.485c1.359-5.833 6.492-9.907 12.482-9.907zm0-65.511h.01zm-6.678-4.097 1.783-.906zm-.009-.016c.001.001.001.003.002.004 0-.001-.001-.002-.002-.004z" fill="#3762cc"></path></g><g><path d="m120.714 22.789h11.472v52.354h-11.472z" fill="#e0ebfc"></path></g><g><path d="m132.185 77.143h-11.471c-1.104 0-2-.896-2-2v-52.354c0-1.104.896-2 2-2h11.471c1.104 0 2 .896 2 2v52.354c0 1.104-.895 2-2 2zm-9.471-4h7.471v-48.354h-7.471z" fill="#3762cc"></path></g><g><path d="m140.812 15.792h40.171v24.237h-40.171z" fill="#e0ebfc"></path></g><g><path d="m180.983 42.029h-40.171c-1.104 0-2-.896-2-2v-24.237c0-1.104.896-2 2-2h40.171c1.104 0 2 .896 2 2v24.237c0 1.104-.896 2-2 2zm-38.171-4h36.171v-20.237h-36.171z" fill="#3762cc"></path></g><g><path d="m106.867 67.668 4.754 7.475h29.657l4.754-7.475c.847-1.331-.11-3.073-1.688-3.073h-35.789c-1.578-.001-2.534 1.741-1.688 3.073z" fill="#a4c9ff"></path></g><g><path d="m141.278 75.143h-14.828-14.828l-2.853 10.216c-1.153 4.127-1.737 8.392-1.737 12.677v11.079c0 1.105.895 2 2 2h17.418 17.418c1.105 0 2-.895 2-2v-11.08c0-4.285-.584-8.55-1.737-12.677z" fill="#a4c9ff"></path></g><g><path d="m168.34 15.792v24.237l6.118 3.059c1.683.841 3.539 1.28 5.42 1.28h45.007c1.657 0 3-1.343 3-3v-26.914c0-1.657-1.343-3-3-3h-45.007c-1.882 0-3.737.438-5.42 1.28z" fill="#4671c6"></path></g><g><path d="m49.244 117.929-3.133-9.398c-.356-1.067-1.866-1.067-2.222 0l-3.133 9.398c-.699 2.098-2.345 3.744-4.443 4.443l-9.398 3.133c-1.067.356-1.067 1.866 0 2.222l9.398 3.133c2.098.699 3.744 2.345 4.443 4.443l3.133 9.398c.356 1.067 1.866 1.067 2.222 0l3.133-9.398c.699-2.098 2.345-3.744 4.443-4.443l9.398-3.133c1.067-.356 1.067-1.866 0-2.222l-9.398-3.133c-2.098-.7-3.744-2.346-4.443-4.443z" fill="#a4c9ff"></path></g><g><path d="m196.706 78.068-2.094-6.283c-.238-.714-1.247-.714-1.485 0l-2.094 6.283c-.467 1.402-1.568 2.503-2.97 2.97l-6.283 2.094c-.714.238-.714 1.247 0 1.485l6.283 2.094c1.402.467 2.503 1.568 2.97 2.97l2.094 6.283c.238.714 1.247.714 1.485 0l2.094-6.283c.467-1.402 1.568-2.503 2.97-2.97l6.283-2.094c.714-.238.714-1.247 0-1.485l-6.283-2.094c-1.402-.467-2.502-1.568-2.97-2.97z" fill="#a4c9ff"></path></g><g><path d="m99.205 4.723v11.055h54.49v-11.055c0-.952-.771-1.723-1.723-1.723h-51.044c-.952 0-1.723.771-1.723 1.723z" fill="#a4c9ff"></path></g><g><path d="m99.205 15.778v8.338c0 9.744 3.192 19.22 9.088 26.978 1.14 1.5 2.916 2.381 4.801 2.381h9.054 8.604 9.054c1.885 0 3.661-.881 4.801-2.381 5.896-7.758 9.088-17.234 9.088-26.978v-8.338z" fill="#4671c6"></path></g><g><path d="m141.278 77.143h-29.657c-.684 0-1.321-.35-1.688-.927l-4.754-7.475c-.784-1.231-.833-2.792-.131-4.071.703-1.28 2.046-2.075 3.506-2.075h35.789c1.46 0 2.804.795 3.506 2.075.703 1.28.653 2.84-.131 4.071l-4.754 7.475c-.365.577-1.002.927-1.686.927zm-28.559-4h27.46l4.165-6.548h-35.789z" fill="#3762cc"></path></g><g><path d="m143.868 113.113h-34.836c-2.206 0-4-1.794-4-4v-11.078c0-4.466.609-8.912 1.811-13.214l2.853-10.216c.241-.864 1.029-1.462 1.926-1.462h29.657c.897 0 1.685.598 1.926 1.462l2.853 10.216c1.201 4.303 1.811 8.749 1.811 13.214v11.079c-.001 2.205-1.796 3.999-4.001 3.999zm-30.729-35.97-2.445 8.754c-1.104 3.952-1.663 8.036-1.663 12.138v11.079h34.836v-11.079c0-4.102-.56-8.186-1.663-12.138l-2.445-8.754z" fill="#3762cc"></path></g><g><path d="m224.885 46.368h-45.006c-2.181 0-4.365-.516-6.315-1.491l-6.118-3.059c-.677-.339-1.105-1.032-1.105-1.789v-24.237c0-.757.428-1.45 1.105-1.789l6.118-3.059c1.95-.975 4.134-1.491 6.315-1.491h45.006c2.757 0 5 2.243 5 5v26.915c0 2.757-2.243 5-5 5zm-54.545-7.575 5.013 2.506c1.398.699 2.963 1.069 4.526 1.069h45.006c.551 0 1-.449 1-1v-26.914c0-.551-.449-1-1-1h-45.006c-1.563 0-3.128.37-4.526 1.068l-5.013 2.506z" fill="#3762cc"></path></g><g><path d="m153.694 17.778h-54.49c-1.104 0-2-.896-2-2v-11.055c0-2.053 1.67-3.723 3.723-3.723h51.044c2.053 0 3.723 1.67 3.723 3.723v11.055c0 1.105-.895 2-2 2zm-52.489-4h50.49v-8.778h-50.49zm50.767-8.778h.01z" fill="#3762cc"></path></g><g><path d="m139.805 55.475h-26.711c-2.495 0-4.885-1.186-6.394-3.171-6.124-8.057-9.496-18.067-9.496-28.188v-8.337c0-1.104.896-2 2-2h54.49c1.104 0 2 .896 2 2v8.337c0 10.121-3.372 20.131-9.496 28.188-1.508 1.986-3.898 3.171-6.393 3.171zm-38.6-37.697v6.337c0 9.251 3.083 18.403 8.68 25.768.757.997 1.957 1.591 3.209 1.591h26.711c1.252 0 2.452-.595 3.209-1.591 5.598-7.365 8.68-16.517 8.68-25.768v-6.337z" fill="#3762cc"></path></g></g></svg>