<!-- icon666.com - MILLIONS vector ICONS FREE --><svg viewBox="0 0 64 64" xmlns="http://www.w3.org/2000/svg"><g id="Icons"><g><g><path d="m52 20h-14v22h16c1.105 0 2-.895 2-2v-8z" fill="#fab400"></path></g><g><g><g><path d="m56 32h-14v-12h10z" fill="#64c8f0"></path></g></g></g><g><path d="m38 20h2v22h-2z" fill="#dc9600"></path></g><g><path d="m53 18h-15v2h15c.552 0 1-.448 1-1s-.448-1-1-1z" fill="#dc9600"></path></g><g><path d="m4 38h34v4h-34z" fill="#fab400"></path></g><g><path d="m4 42h40v4h-40z" fill="#d2d2d2"></path></g><g><path d="m4 42h2v4h-2z" fill="#b4b4b4"></path></g><g><g><g><path d="m52 34h4v2h-4z" fill="#dc9600"></path></g></g></g><g><g><path d="m35 50c-2.761 0-5-2.239-5-5 0-2.761 2.239-5 5-5 2.761 0 5 2.239 5 5 0 2.761-2.239 5-5 5z" fill="#505050"></path></g><g><path d="m31.667 45c0-2.477 1.803-4.528 4.167-4.925-.272-.046-.549-.075-.834-.075-2.761 0-5 2.239-5 5s2.239 5 5 5c.285 0 .562-.029.833-.075-2.364-.397-4.166-2.448-4.166-4.925z" fill="#3c3c3c"></path></g><g><path d="m35 47.5c-1.381 0-2.5-1.119-2.5-2.5 0-1.381 1.119-2.5 2.5-2.5 1.381 0 2.5 1.119 2.5 2.5 0 1.381-1.119 2.5-2.5 2.5z" fill="#d2d2d2"></path></g><g><path d="m35 45.833c-.46 0-.833-.373-.833-.833 0-.46.373-.833.833-.833.46 0 .833.373.833.833 0 .46-.373.833-.833.833z" fill="#b4b4b4"></path></g></g><g><path d="m38 38h-34v4h2v-2h32z" fill="#dc9600"></path></g><g><path d="m4 18h32v20h-32z" fill="#d2d2d2"></path></g><g><path d="m4 18h2v20h-2z" fill="#b4b4b4"></path></g><g><path d="m8 22h2v12h-2z" fill="#b4b4b4"></path></g><g><path d="m12 22h2v12h-2z" fill="#b4b4b4"></path></g><g><path d="m16 22h2v12h-2z" fill="#b4b4b4"></path></g><g><path d="m20 22h2v12h-2z" fill="#b4b4b4"></path></g><g><path d="m24 22h2v12h-2z" fill="#b4b4b4"></path></g><g><path d="m28 22h2v12h-2z" fill="#b4b4b4"></path></g><g><path d="m32 22h2v12h-2z" fill="#b4b4b4"></path></g><g><g><path d="m13 50c-2.761 0-5-2.239-5-5 0-2.761 2.239-5 5-5 2.761 0 5 2.239 5 5 0 2.761-2.239 5-5 5z" fill="#505050"></path></g><g><path d="m9.667 45c0-2.477 1.803-4.528 4.167-4.925-.272-.046-.549-.075-.834-.075-2.761 0-5 2.239-5 5s2.239 5 5 5c.285 0 .562-.029.833-.075-2.364-.397-4.166-2.448-4.166-4.925z" fill="#3c3c3c"></path></g><g><path d="m13 47.5c-1.381 0-2.5-1.119-2.5-2.5 0-1.381 1.119-2.5 2.5-2.5 1.381 0 2.5 1.119 2.5 2.5 0 1.381-1.119 2.5-2.5 2.5z" fill="#d2d2d2"></path></g><g><path d="m13 45.833c-.46 0-.833-.373-.833-.833 0-.46.373-.833.833-.833.46 0 .833.373.833.833 0 .46-.373.833-.833.833z" fill="#b4b4b4"></path></g></g><g><path d="m44 50 2-4h12l2 4z" fill="#fab400"></path></g><g><path d="m46 46-2 4h2l2-4z" fill="#dc9600"></path></g><g><path d="m44 42v2h7v2h2v-2c0-1.105-.895-2-2-2z" fill="#505050"></path></g><g><path d="m38 18 2-4h2l2 4z" fill="#505050"></path></g><g><path d="m40 14-2 4h2l2-4z" fill="#3c3c3c"></path></g></g></g></svg>