<!-- icon666.com - MILLIONS vector ICONS FREE --><svg id="Capa_1" enable-background="new 0 0 512 512" viewBox="0 0 512 512" xmlns="http://www.w3.org/2000/svg"><g><g><path d="m496.981 511.001c-7.077 0-13.375-5.03-14.727-12.239l-18.75-100c-1.526-8.142 3.837-15.98 11.979-17.507 8.154-1.524 15.981 3.837 17.508 11.979l18.75 100c1.526 8.142-3.837 15.98-11.979 17.507-.935.176-1.865.26-2.781.26z" fill="#454554"></path><path d="m496.322 410.999h-332.524l-73.544-392.236c-1.731-9.231 5.351-17.764 14.743-17.764h302.001c7.218 0 13.413 5.141 14.743 12.236z" fill="#865240"></path></g><g><path d="m317.019 511.001c-.917 0-1.847-.084-2.781-.26-8.142-1.527-13.505-9.365-11.979-17.507l18.75-100c1.527-8.142 9.363-13.507 17.508-11.979 8.142 1.527 13.505 9.365 11.979 17.507l-18.75 100c-1.352 7.209-7.651 12.239-14.727 12.239z" fill="#525263"></path><path d="m15.019 511.001c-.917 0-1.847-.084-2.781-.26-8.142-1.527-13.505-9.365-11.979-17.507l18.75-100c1.526-8.142 9.364-13.507 17.508-11.979 8.142 1.527 13.505 9.365 11.979 17.507l-18.75 100c-1.352 7.209-7.651 12.239-14.727 12.239z" fill="#6e6e84"></path><path d="m348.202 410.999h-332.524l74.581-397.765c1.33-7.095 7.525-12.236 14.743-12.236h302.001c9.392 0 16.474 8.533 14.743 17.764z" fill="#c69586"></path><path d="m407.003.999h-151v410h92.199l73.544-392.236c1.731-9.231-5.351-17.764-14.743-17.764z" fill="#af705c"></path><g><path d="m191.003 230.999c-8.284 0-15-6.716-15-15v-50c0-8.284 6.716-15 15-15s15 6.716 15 15v50c0 8.284-6.716 15-15 15z" fill="#cecedd"></path><path d="m221.003 135.999-15 45h-30c-24.813 0-45-20.187-45-45s20.187-45 45-45h30z" fill="#ff8493"></path><path d="m221.003 135.999h-90c0 24.813 20.187 45 45 45h30z" fill="#ff4a4a"></path><path d="m206.003 90.999h10c29.019 0 57.784-9.589 81-27 4.545-3.408 10.628-3.957 15.708-1.417 5.082 2.541 8.292 7.735 8.292 13.417v120c0 5.682-3.21 10.875-8.292 13.417-2.122 1.061-4.42 1.583-6.706 1.583-3.188 0-6.354-1.015-9.002-3-23.216-17.411-51.981-27-81-27h-10z" fill="#f4f4f6"></path><path d="m206.003 135.999v45h10c29.019 0 57.784 9.589 81 27 2.647 1.985 5.813 3 9.002 3 2.286 0 4.584-.522 6.706-1.583 5.082-2.541 8.292-7.735 8.292-13.417v-60z" fill="#cecedd"></path></g><path d="m297.206 290.999h-179.906c-8.284 0-15-6.716-15-15s6.716-15 15-15h179.906c8.284 0 15 6.716 15 15s-6.716 15-15 15z" fill="#f4f4f6"></path><path d="m285.956 350.999h-179.906c-8.284 0-15-6.716-15-15s6.716-15 15-15h179.906c8.284 0 15 6.716 15 15s-6.716 15-15 15z" fill="#f4f4f6"></path><g fill="#cecedd"><path d="m285.956 320.999h-29.953v30h29.953c8.284 0 15-6.716 15-15s-6.716-15-15-15z"></path><path d="m297.206 260.999h-41.203v30h41.203c8.284 0 15-6.716 15-15s-6.716-15-15-15z"></path></g></g></g></svg>