<!-- icon666.com - MILLIONS vector ICONS FREE --><svg xmlns="http://www.w3.org/2000/svg" xmlns:xlink="http://www.w3.org/1999/xlink" version="1.1" id="Capa_1" x="0px" y="0px" viewBox="0 0 512 512" style="enable-background:new 0 0 512 512;" xml:space="preserve"><g><g><g><g><circle style="fill:#00D6CB;" cx="256" cy="256" r="256"></circle></g></g></g><path style="fill:#1CADB5;" d="M502.727,324.464L336.314,158.052L226.217,88.578l-89.815,31.096l-36.299,284.509l102.146,102.146 C219.582,510.033,237.56,512,256,512C373.67,512,472.784,432.604,502.727,324.464z"></path><g><path style="fill:#FFFFFF;" d="M363.5,383h-39V230.051c0-18.684-7.276-36.25-20.488-49.461l-45.55-45.551 c-13.212-13.212-30.777-20.488-49.462-20.488s-36.25,7.276-49.461,20.488c-27.273,27.273-27.273,71.65,0,98.923l2.25,2.25 l-27.577,27.577l-2.25-2.25c-42.479-42.479-42.479-111.598-0.001-154.077C152.539,86.884,179.898,75.551,209,75.551 s56.461,11.333,77.039,31.911l45.55,45.551c20.578,20.578,31.911,47.938,31.911,77.039V383z"></path></g><g><path style="fill:#E3FBFF;" d="M331.589,153.012l-45.55-45.551c-8.955-8.955-19.196-16.157-30.304-21.438v46.436 c0.927,0.834,1.839,1.691,2.727,2.58l45.55,45.551c13.212,13.212,20.488,30.777,20.488,49.461V383h39V230.051 C363.5,200.95,352.167,173.59,331.589,153.012z"></path></g><g><rect x="324.5" y="230.051" style="fill:#DBEEFF;" width="39" height="152.949"></rect></g><g><path style="fill:#4A7AFF;" d="M209.008,414h-85.016C105.219,414,90,398.781,90,380.008v-65C90,249.282,143.282,196,209.008,196h0 C227.781,196,243,211.219,243,229.992v150.016C243,398.781,227.781,414,209.008,414z"></path></g><g><path style="fill:#0053BF;" d="M90.007,314.482c-0.001,0.176-0.007,0.35-0.007,0.526v65C90,398.781,105.219,414,123.992,414 h85.016C227.781,414,243,398.781,243,380.008v-65.526H90.007z"></path></g><g><path style="fill:#0053BF;" d="M209.008,196L209.008,196c-4.969,0-9.865,0.31-14.675,0.901V414h14.675 C227.781,414,243,398.781,243,380.008V229.992C243,211.219,227.781,196,209.008,196z"></path></g><g><path style="fill:#27488F;" d="M194.333,314.482V414h14.675C227.781,414,243,398.781,243,380.008v-65.526H194.333z"></path></g><g><circle style="fill:#1B3B6B;" cx="204.025" cy="378.025" r="45.025"></circle></g><g><path style="fill:#12254C;" d="M159.038,376.53c-0.016,0.498-0.038,0.994-0.038,1.495c0,24.867,20.159,45.025,45.025,45.025 s45.025-20.159,45.025-45.025c0-0.501-0.021-0.998-0.038-1.495H159.038z"></path></g><g><circle style="fill:#4A7AFF;" cx="204.025" cy="378.025" r="27.39"></circle></g><g><path style="fill:#0053BF;" d="M176.678,376.53c-0.027,0.495-0.042,0.993-0.042,1.495c0,15.127,12.263,27.39,27.39,27.39 s27.39-12.263,27.39-27.39c0-0.502-0.015-1-0.042-1.495H176.678z"></path></g><g><path style="fill:#0053BF;" d="M378.383,373.026H312v-28.993h51.621c8.153,0,14.762,6.609,14.762,14.762V373.026z"></path></g><g><path style="fill:#27488F;" d="M417,405.415H312V370h84.48c11.333,0,20.52,9.187,20.52,20.52V405.415z"></path></g></g></svg>