<!-- icon666.com - MILLIONS vector ICONS FREE --><svg id="Capa_1" enable-background="new 0 0 512 512" viewBox="0 0 512 512" xmlns="http://www.w3.org/2000/svg" xmlns:xlink="http://www.w3.org/1999/xlink"><linearGradient id="SVGID_1_" gradientUnits="userSpaceOnUse" x1="256" x2="256" y1="512" y2="0"><stop offset="0" stop-color="#ffbef9"></stop><stop offset="1" stop-color="#fff1ff"></stop></linearGradient><linearGradient id="SVGID_00000039103998574618741560000002157610187049518264_" gradientUnits="userSpaceOnUse" x1="256" x2="256" y1="407" y2="105"><stop offset="0" stop-color="#ff81ff"></stop><stop offset="1" stop-color="#a93aff"></stop></linearGradient><g><circle cx="256" cy="256" fill="url(#SVGID_1_)" r="256"></circle><path d="m299.648 353.914c7.378 0 14.752 4.586 19.859 8.846-5.112 4.267-12.483 8.849-19.859 8.849-7.378 0-14.752-4.586-19.859-8.846 5.112-4.267 12.483-8.849 19.859-8.849zm47.188-20.644c0 4.886 3.961 8.848 8.848 8.848h51.316v56.035c0 4.886-3.961 8.848-8.848 8.848h-284.304c-4.886 0-8.848-3.961-8.848-8.848v-44.238h67.832c4.886 0 8.848-3.961 8.848-8.848s-3.961-8.848-8.848-8.848h-67.832v-20.645c0-4.886 3.961-8.848 8.848-8.848h284.305c4.886 0 8.848 3.961 8.848 8.848v8.848h-51.316c-4.888 0-8.849 3.961-8.849 8.848zm-106.172 11.796c0-4.886-3.961-8.848-8.848-8.848h-23.594c-4.886 0-8.848 3.961-8.848 8.848s3.961 8.848 8.848 8.848h23.594c4.887 0 8.848-3.961 8.848-8.848zm98.265 12.082c-.701-.855-17.43-20.93-39.28-20.93s-38.579 20.075-39.28 20.93c-2.678 3.263-2.678 7.963 0 11.227.701.855 17.43 20.93 39.28 20.93s38.579-20.075 39.28-20.93c2.678-3.263 2.678-7.963 0-11.227zm-189.69-69.296h27.592c9.647-9.829 25.271-26.998 27.007-39.552.669-4.841 5.135-8.228 9.976-7.552 4.84.669 8.222 5.136 7.552 9.976-1.697 12.275-10.098 25.047-20.481 37.128h42.739c2.343-.003 4.589-.935 6.245-2.592l.005-.005c12.975-12.776 20.282-30.224 20.282-48.433v-13.854c0-4.886-3.961-8.848-8.848-8.848h-94.375c-4.886 0-8.848 3.961-8.848 8.848v13.322c0 13.672-5.431 26.785-15.099 36.453l-.004.004c-5.573 5.574-1.626 15.105 6.257 15.105zm82.577-165.157c0-9.773-7.922-17.695-17.695-17.695s-17.695 7.922-17.695 17.695v73.73h35.391v-73.73z" fill="url(#SVGID_00000039103998574618741560000002157610187049518264_)"></path></g></svg>