<!-- icon666.com - MILLIONS vector ICONS FREE --><svg xmlns="http://www.w3.org/2000/svg" xmlns:xlink="http://www.w3.org/1999/xlink" viewBox="0 0 512 512"><defs><linearGradient id="linear-gradient" x1="16" y1="260" x2="496" y2="260" gradientUnits="userSpaceOnUse"><stop offset="0" stop-color="#41dfd0"></stop><stop offset="1" stop-color="#ee83ef"></stop></linearGradient></defs><g id="gradient"><path d="M432,64a8,8,0,0,0-7.155,4.422,45.963,45.963,0,0,1-20.423,20.423,8,8,0,0,0,0,14.31,45.963,45.963,0,0,1,20.423,20.423,8,8,0,0,0,14.31,0,45.963,45.963,0,0,1,20.423-20.423,8,8,0,0,0,0-14.31,45.963,45.963,0,0,1-20.423-20.423A8,8,0,0,0,432,64Zm0,41.314A62.459,62.459,0,0,0,422.687,96,62.459,62.459,0,0,0,432,86.686,62.459,62.459,0,0,0,441.313,96,62.459,62.459,0,0,0,432,105.314ZM135.155,84.422a8,8,0,0,0-14.31,0,45.963,45.963,0,0,1-20.423,20.423,8,8,0,0,0,0,14.31,45.963,45.963,0,0,1,20.423,20.423,8,8,0,0,0,14.31,0,45.963,45.963,0,0,1,20.423-20.423,8,8,0,0,0,0-14.31A45.963,45.963,0,0,1,135.155,84.422ZM128,121.314A62.459,62.459,0,0,0,118.687,112,62.459,62.459,0,0,0,128,102.686,62.459,62.459,0,0,0,137.313,112,62.459,62.459,0,0,0,128,121.314ZM52.422,56.845a8,8,0,0,0,0,14.31A45.963,45.963,0,0,1,72.845,91.578a8,8,0,0,0,14.31,0,45.963,45.963,0,0,1,20.423-20.423,8,8,0,0,0,0-14.31A45.963,45.963,0,0,1,87.155,36.422a8,8,0,0,0-14.31,0A45.963,45.963,0,0,1,52.422,56.845ZM80,54.686A62.459,62.459,0,0,0,89.313,64,62.459,62.459,0,0,0,80,73.314,62.459,62.459,0,0,0,70.687,64,62.459,62.459,0,0,0,80,54.686ZM240,224h24v16H248v16H232V232A8,8,0,0,1,240,224Zm-8,48h16v16H232Zm232-40v24H448V240H432V224h24A8,8,0,0,1,464,232Zm-16,40h16v16H448Zm41.315-103.891-46.5-7.751-78.7-47.218A8,8,0,0,0,360,112H224a8,8,0,0,0-4.438,1.344L149.578,160H100.24a84.132,84.132,0,0,0-75.96,48H24v.6c-.673,1.459-1.32,2.931-1.908,4.431A82.191,82.191,0,0,0,16,244.24V248a8,8,0,0,0,8,8H64.679a47.991,47.991,0,0,0,94.642,0H200v88a24.027,24.027,0,0,0,24,24h24v16a7.994,7.994,0,0,0,.845,3.578L272,433.889V440a8,8,0,0,0-8,8v32a8,8,0,0,0,8,8H416a8,8,0,0,0,8-8V448a8,8,0,0,0-8-8v-6.7l15.59-46.768A8.027,8.027,0,0,0,432,384V368h40a24.027,24.027,0,0,0,24-24V176A8,8,0,0,0,489.315,168.109ZM304,128h53.784l27.9,16.739L365.333,160H304Zm-77.578,0H288v32H178.422ZM112,280a32,32,0,1,1,32-32A32.036,32.036,0,0,1,112,280Zm88-64v24H159.321a47.991,47.991,0,0,0-94.642,0H32.131a66.142,66.142,0,0,1,2.99-16H56V208H42.462a68.252,68.252,0,0,1,57.778-32H288v16H224A24.027,24.027,0,0,0,200,216ZM400,472H288V456H400Zm16-89.3L400.41,429.47A8.027,8.027,0,0,0,400,432v8H288v-8a7.994,7.994,0,0,0-.845-3.578L264,382.111V316a12,12,0,0,1,24,0v37.491a8,8,0,0,0,16,0V264a8,8,0,0,1,16,0v73.491a8,8,0,0,0,16,0V264a8,8,0,0,1,16,0v73.491a8,8,0,0,0,16,0V264a8,8,0,0,1,16,0v73.491a8,8,0,0,0,16,0V280a8,8,0,0,1,16,0ZM480,344a8.009,8.009,0,0,1-8,8H432V280a24,24,0,0,0-32.842-22.312A23.988,23.988,0,0,0,360,246.126a23.958,23.958,0,0,0-32,0A23.988,23.988,0,0,0,288,264v26.7A28,28,0,0,0,248,316v36H224a8.009,8.009,0,0,1-8-8V216a8.009,8.009,0,0,1,8-8H472a8.009,8.009,0,0,1,8,8Zm0-150.624A23.889,23.889,0,0,0,472,192H304V176h64a8.006,8.006,0,0,0,4.8-1.6l27.7-20.773,35.387,21.233a8,8,0,0,0,2.8,1.031L480,182.777ZM128,248a16,16,0,1,1-16-16A16,16,0,0,1,128,248Z" style="fill:url(#linear-gradient)"></path></g></svg>