<!-- icon666.com - MILLIONS vector ICONS FREE --><svg id="flat_gradient_flaticon" viewBox="0 0 64 64" xmlns="http://www.w3.org/2000/svg" xmlns:xlink="http://www.w3.org/1999/xlink" data-name="flat gradient flaticon"><linearGradient id="linear-gradient" gradientUnits="userSpaceOnUse" x1="4.305" x2="59.695" y1="32" y2="32"><stop offset="0" stop-color="#00c0ff"></stop><stop offset="1" stop-color="#5558ff"></stop></linearGradient><path d="m53.62731 36.16h-8.35715a3.52463 3.52463 0 0 1 -4.62066-.00006l-4.5785.00006a4.01047 4.01047 0 0 1 -6.72572-.00013l-20.38766.00013a16.76224 16.76224 0 0 1 -2.105-.06313c.30776 6.78722-.35646 12.45039 6.73592 21.4824a6.8482 6.8482 0 0 0 5.28396 2.42073h24.83992a6.85038 6.85038 0 0 0 5.27323-2.41035c7.09723-9.05012 6.439-14.69315 6.747-21.49272a17.70118 17.70118 0 0 1 -2.10534.06307zm-22.33482 18.31418a7.48543 7.48543 0 0 1 -7.73618-7.18885c.39418-9.54106 15.07318-9.53874 15.47232.00008a7.49214 7.49214 0 0 1 -7.73614 7.18877zm-26.98707-23.12428v-3.03132c0-1.49458 1.5472-2.7155 3.45229-2.7155h20.96659c.00085 2.70573-.00144 5.74813 0 8.45185h-20.96659c-1.67371.04831-3.49671-1.16257-3.45229-2.70503zm53.96358-3.03132v3.03128c.04869 1.54329-1.77236 2.754-3.44171 2.70507h-8.39929a13.44113 13.44113 0 0 0 .0421-1.65247c-.00057-2.11085-.00117-4.70393 0-6.79937h8.35715c1.89452-.00001 3.44175 1.22091 3.44175 2.71549zm-18.76673 5.73642c.002-.01732-2.85531.03493-2.81032-.0211.001-.39588-.00134-1.241 0-1.63138a1.38846 1.38846 0 1 1 2.76818 0 13.77808 13.77808 0 0 0 .04214 1.65248zm2.06306-1.78936c-.39734-5.14932-7.5883-4.34321-6.97851.8736.0327.91649.04 1.89431-.82086 2.44187a1.89446 1.89446 0 0 1 -2.9366-1.44192c.00415-2.58829-.00554-6.006 0-8.53607h13.53564c.00076 2.49157-.001 5.453 0 7.94661a1.40024 1.40024 0 0 1 -2.79979-.0105c.0005-.31697-.00071-.95735.00012-1.27363zm-10.27272 20.10347c-7.44917-.22257-7.4396-9.95677-.00012-10.17809 7.43786.22043 7.45051 9.9546.00012 10.17809zm26.71739-44.24223-14.6829 2.86287-.21045-4.19962 14.10394-2.74707a2.07971 2.07971 0 1 1 .78941 4.08382zm-29.01845 10.00964.88416-7.29408a2.02318 2.02318 0 0 1 1.49458-1.75778l9.65175-1.884c.15271 2.90941.36756 7.26.51579 10.16744a.81849.81849 0 0 1 -1.63149.12645 3.2537 3.2537 0 0 0 -6.50466.08412v.83155a2.21337 2.21337 0 1 1 -4.41013-.27367z" fill="url(#linear-gradient)"></path></svg>