<!-- icon666.com - MILLIONS vector ICONS FREE --><svg id="Layer_1_1_" enable-background="new 0 0 64 64" viewBox="0 0 64 64" xmlns="http://www.w3.org/2000/svg"><path d="m2 3h17v7h-17z" fill="#805b32"></path><path d="m61 59v-44c0-1.105-.895-2-2-2h-18c-1.105 0-2 .895-2 2v12h4v-7c0-1.105.895-2 2-2h10c1.105 0 2 .895 2 2v34c0 1.105-.895 2-2 2h-8v2c0 1.657-1.343 3-3 3h15c1.105 0 2-.895 2-2z" fill="#f7f7f7"></path><path d="m55 58h-10c-2.209 0-4-1.791-4-4v-34c0-2.209 1.791-4 4-4h10c2.209 0 4 1.791 4 4v34c0 2.209-1.791 4-4 4z" fill="#e3e3e3"></path><path d="m44 31h3v25h8c1.105 0 2-.895 2-2v-34c0-1.105-.895-2-2-2h-10c-1.105 0-2 .895-2 2v7h1z" fill="#f7f7f7"></path><path d="m49 28h-1c-.552 0-1-.448-1-1v-3c0-.552-.448-1-1-1h-4v4h2v4h3v25h3v-27c0-.552-.448-1-1-1z" fill="#e3e3e3"></path><path d="m12 10h7v-7h-14s7 1 7 7z" fill="#73522d"></path><path d="m19.5 18c1.933 0 3.5-1.567 3.5-3.5v-1.5c0-1.105.895-2 2-2s2 .895 2 2v6.5c0 1.933 1.567 3.5 3.5 3.5s3.5-1.567 3.5-3.5v-7c0-1.381 1.119-2.5 2.5-2.5 1.933 0 3.5-1.567 3.5-3.5s-1.567-3.5-3.5-3.5h-27.5s7 1 7 7v4.5c0 1.933 1.567 3.5 3.5 3.5z" fill="#fc984a"></path><circle cx="32" cy="18" fill="#fff" r="1"></circle><path d="m31 15v-4c0-.552.448-1 1-1 .552 0 1 .448 1 1v4c0 .552-.448 1-1 1-.552 0-1-.448-1-1z" fill="#fff"></path><path d="m36.5 3h-27.5s2.567.376 4.593 2h21.907c1.933 0 3.5 1.567 3.5 3.5 0 .17-.027.332-.05.495.647-.635 1.05-1.517 1.05-2.495 0-1.933-1.567-3.5-3.5-3.5z" fill="#fca765"></path><g fill="#ed8c40"><path d="m27 11c0-1.105-.895-2-2-2s-2 .895-2 2v1.5c0 1.933-1.567 3.5-3.5 3.5s-3.5-1.567-3.5-3.5v2c0 1.933 1.567 3.5 3.5 3.5s3.5-1.567 3.5-3.5v-1.5c0-1.105.895-2 2-2s2 .895 2 2z"></path><path d="m30.5 21c-1.933 0-3.5-1.567-3.5-3.5v2c0 1.933 1.567 3.5 3.5 3.5s3.5-1.567 3.5-3.5v-2c0 1.933-1.567 3.5-3.5 3.5z"></path><path d="m36.917 8c-1.611 0-2.917 1.119-2.917 2.5v2c0-1.381 1.306-2.5 2.917-2.5 2.255 0 3.083-1.567 3.083-3.5 0-.35-.078-.681-.19-1-.504 1.442-1.046 2.5-2.893 2.5z"></path></g><path d="m6 27h38v4h-38z" fill="#345485"></path><path d="m44 61h-38c-1.657 0-3-1.343-3-3v-27h44v27c0 1.657-1.343 3-3 3z" fill="#47648f"></path><path d="m37 46c0-6.627-5.373-12-12-12s-12 5.373-12 12 5.373 12 12 12 12-5.373 12-12z" fill="#fff"></path><path d="m36.555 49.2h-23.11c1.402 5.071 6.038 8.8 11.555 8.8s10.153-3.729 11.555-8.8z" fill="#fbc997"></path><path d="m27.059 43.085 1.941-4.285s-6.4 4-6.4 10.4h-1.6v.8c0 1.767 1.433 3.2 3.2 3.2s3.2-1.433 3.2-3.2v-.8h-1.6s.389-4.196 1.259-6.115z" fill="#634627"></path><path d="m47 58v-27h-3.571v11c0 9.389-7.611 17-17 17h-20.429c-1.657 0-3-1.343-3-3v2c0 1.657 1.343 3 3 3h38c1.657 0 3-1.343 3-3z" fill="#3d5e8f"></path></svg>